/* XPM */
static char *brainsmall [] = {
/* brainsmall pixmap */
" 128 128 4 1",
/* colors */
"` s color0 c #9f9f9f",
"a s color1 c #5f5f5f",
"b s color2 c #dfdfdf",
"c s color3 c #202020",
/* pixels */
"acccccccccaa`bbbb`b``aacac``bbb``aaccccc`a```a`a``b`bbbbbbbb`a`bbbbbbbbbbbbbb``cccccca`bbbbbb``ccc``bbbb`aaca`b`bbbaaa``bbbbbbb`",
"``accccca``b`bbb`b`ba`c`a``bbbbbbb`acccaaaa`aaaaa````bbbbbbb`````bbbbbbbbbbb``accccaa``bbbbbbbaccaabbbbb``aaab`b`b``caabbbbbbb`b",
"b``cacac````bbbbb``aacaa``bbbbbbbbbaacccacacacccccaa``bbbbbbbb`a``bbbbbbbbb``cccacaa``bbbbbbb`accc``bbbbbaac``b`b`baacaabbbbbbb`",
"bbb`a`a``bbbbbbbbbaacaa``bbbbbbbbbbbaaaaa`a`aaaccacaa``bbbbbbbbb`b`bbbbbbb``cacaa`a``bbbbbbb``cccaabbbbbb`caab`bbbb`aaca`bbbbbbb",
"bbbb`ab`bbbbb`b`baacac``bbbbbbbbbbb``cacaa`````acccccc``bbbbbbb``a``b`b``aacccaa``b`bbbbbbb``cccca``bbbbbaaca`b`bbb`acccaab`bbbb",
"bbbbbbbbbbbbbb`b`acca``bbbbbbbbbbbbb``aaa``bbbb`aacccaa``bbbbbbb``a``b``aacaa`a``bbbbbbbbb``accca``bbbbb``acabbb`bbbaacccaab`bbb",
"b`bbbbbbbbbbb`baacccaabbbbbbb`bbbbbbbaac``bbbbbb`accccaa``bbbbb``cccacacccac`a``bbbbbbbbb``accccaa``bbbbb`aca`b`bbbb`aacccaa``bb",
"bbbbbbbbbbbbbb`acac``bbbbbbb```bbbbbb`a``bbbbbbbbbaacacaa``bbb`baacccacccaa``b`bbbbbbbbb``accac`a``bbbbbb`aaa``bbbbb``cccacaa``b",
"b`bbbbb`b`b`baacccaa`bbbbbb``a``bbbbbaaa`bbbbbbbb``aaccccaaa`a`aacccccccaa``bbbbbbbbbbbaacccac`a``b`bbb``accaabbbbbbbaacccccccaa",
"a``bbbbbbbbba`aaaaa`bbbbbb``a`a`bbbbbbaaabbbbbbbbbb`a`cacccaa`aacccccccaa``bbbbbbbbbbbaaccaaa``b`bbbbbbbaaccc``bbbbbbb``aaccccca",
"acaa``b````aaaaa```bbbbbbb`aaa`abbbbb``caab`bbbbbbbbb``aacacccacacacaaaa`bb`bbbbbbb``aacccaa``b`b`bbbbbaaccccc``bbbbbbb``aaccccc",
"cacaaaa`aacac`ab`bbbbbbbbbaacaa`bbbbbbaacaabbbbbbbbbbb``aacacaa`````a``b`bbbbbbbbb`acacaa`a``bbbbbbbbb``cccccaa`bbbbbbbbbba`caca",
"acccccccccccaabbbbbbbbbbb`accca`bbbbbb`accaab`bbbbbbbbbb`aaccca`b`bb``b`bbbbbbbbbaacccac`a``bbbbbbb`b`acccccccaa`bbbbbbbbbb``aac",
"a`aacccccccca``bbbbbbbbbb`cccca`bbbbbb``cccaa``b`bbbbbbb`b`aa``bbbbbbbbbbbbbbb`baacccaa`bbbbbbbbbbb`aaaaccccccccabbbbbbbbbbbbba`",
"```a`aaccccca`bbbbbbbbbbbaccccaabbbbbbbaacccaa``b`bbbbbbb`bab`bbbbbbbbb`bbbbb``aacccaa``bbbbbbbbbb`aacacccacccccaa`bbbbbbbbbbbb`",
"bbbb``aacccca`bbbbbbbbbbaaccccc``bbbbbbb``accacaab`bbbbbbbbb`bbbbbbbbbbbbbbb``caccc``bbbbbbbbbbb``aacaa`caa`aacccac``bbbbbbbbbbb",
"bbbbbbbaaccccab`bbbbb``accccccca``bbbbbbbaacccccca``bbbbbbbbbbb`bbbbbbbbbbb`accccc``bbb`bbbbbbb`acacac`a`ab``aaccccca`bbbbbbbbbb",
"bbbbbbbb``aaca`bbbbb``aaccccccccab`bbbbbbb`accccccca`bbbbbbbbb`b`b`bbbbb``aacccaa``bbb`bbbbbbbaacccaa``bbbbbbb``acccc``bbbbbbbbb",
"bbbbbbbbb``ccca`b`b``accccaccccccabbbbbbbbbaacaccccc``bbbbbbb`b`````b`b``aacccaa``bbbbbbbbb``aacccaa``bbbbbbbbb``cccccaa``b`bbbb",
"bbbbbbbbbb``aacaaaa`cacaa`a`aacccaabbbbbbbbb``accaccabbbbbbbbb``aacaa`aacacca`a`bb`bbbbbbb``a`aaa`abbbbbbbbbbbbb``aacccccaa``bbb",
"b`bbbbbbbbb``accccccccaa`````aacccaa``bbbbbbb`accccca`bbbbbbb``accccccccccac`a`bb`bbbbbbb`acacaaaabbbbbbbbbbbbbbb``aacccccccaa``",
"a``bbbbbbbbb``aacacaa`abbbbbbb``cccaa``bbbbbbb`acccaa`bbbbbbb`aaccccccccc`a``bbbbbbbbbbbaacac`a``bbbbbbbbbbbbbbbbbbba`cccccacaca",
"acaa``bbbbbbbb`aaaaa``bbbbbbbbb``cccaab`bbbbbbbaaccc``bbbbbbbaacccacccca``bbbbbbbbbbbbbaacccaa``bbbbbbbbb`b`bbbbbbbbb`acaccccccc",
"cccaa``bbbbbbbbb`````bbbbbbbbbbb`acccaabbbbbbbb`caa`abbbbbbb`accccaacaab`bbbbbbbbbbbbbaacaa`a`bbbbbbbbbb``abbbbbbbbbbb````aacccc",
"accccca`bbbbbbbbbbbbbbbbbbbbbbbbbaacccaabbbbbbb`acaa``bbbbb``cccccccaabbbbbbbbbbbbb``aacac`a``bbbbbbbbb`accc``bbbbbbbbbbb``a`aac",
"aacaccca`bbbbbbbbbbbbbbbbbbbbbbbbbaccca``bbbbbbbaac``bbbbb`baccccaab`bbbbbbbbbbbbb``aacaa`abbbbbbbbbbbaacccca``bbbbbbbbbbb`bbb``",
"`aacacccaabbbbbbbbbbbbbbbbbbbbbbbb`cccaa`bbbbbb`acaabbbbbbbaaccccabbbbbbbbbbbbb``a`aacac``bbbbbbbbbb`aaccccccca`b`bbbbbbbbbbbbbb",
"`b``aacccaabbbbbbbbbbbbbbb`bbbbbbb``ccc``bbbbbbbaaa`bbbbbbbbaacaabbbbbbbbbbbbb``aacacaa``bbbbbbbbbbbaaccccccccc``bbbbbbbbbbbbbbb",
"b`b``aacccca``bbbbbbbbb``a`abbbbbbbacccc`bbbbbb`aca`bbbbbbbb`a`a`bbbbbbbbbb`b`acccccac``bbbbbbbbb``cacccacacccccaa``bbbbbbbbbbbb",
"bbbbbbaacccca``b`b`b`b`acac``bbbbbb`ccca`bbbbbbbaca`bbbbbbbbbbbbbbbbbbbbbb``a`cccccaa``bbbbbbbbb``aacaa`a```aacccaa``bbbbbbbbbbb",
"bbbbbbbaacccccccaa```cccccca`bbbbbbaaccc`bbbbbb`acaabbbbbbbbbbbbbbbbbbb`b``cccccccaa`bbbbbbbbbb`acccaa`ab`b`b`acccccaa````b`b`bb",
"bbbbbbbb``aacacacacacaccccc``bbbbbb`acc``bbbbbbbaac`bbbbbbbbbbbb`bbbbb``aaaacaaaa``bbbbbbbbbbb``aacaa``bbbbbbb``cccccacaa`a``b`b",
"bbbbbbbbb``aacccccccccccccca`bbbbbb`acaa``bbbbb`acca`bbbbbbbbbbbbbb``a`cccacacaa``b`bbbbbbb``aacacaa``bbbbbbbbb`acccccacccccaa``",
"abbbbbbbbbbb``a`aaccccccccc``bbbbbb`acc`abbbbbb`aaca`bbbbbbbbbbbbbbbaacaa`a`a``bbbbbbbbbbbb`aacaa`a`bbbbbbbbbbbbaacca`a`a`aacaca",
"aa``bbbbbbbbb````aacaccccccc`bbbbbb``cac``bbbbb`acac``bbbbbbbbbbbbbaacaa```bbbb`bbbbbbbbb``accccaa``bbbbbbbbbbb``ccc`a``b``aaccc",
"caabbbbbbbbbbbbbbbbb``acccc``bbbbbbbacc``bbbbbbbaacaa`bbbbbbbbbbbb``aaa``bbbbbbbbbbbbbbb``aacaa``bbbbbbbbbbbbbbb``aaabbbbbbbaacc",
"ccca``bbbbbbbbbbbbbbb``cccca``bbbbb`acca``bbbbb``cccaab`bbbbbbbb`aacac``bbbbbbbbbbbbbb`aacaccc`a`bbbbbbbb`bbbbbbb`aca`bbbbb``aac",
"accac``bbbbbbbbbbbbbbb``aaca`bbbbbbbaacaabbbbbbb``cccaa``b`bbbbbaacaca`bbbbbbbbbbbbb``aacaaaa``b`bbbbbbb```bbbbbbbaaabbbbbbb`b``",
"`cccccaab`bbbbbbbbbbbbb``aac``bbbbbb`aac``bbbbbbbaccccacaa`a```aacacca`bbbbbbbbbbbb`acacccaa``bbbbbbbb`aaa``bbbbb``ca`bbbbbbbbba",
"``accccaa``bbbbbbbbbbbbb``aaabbbbbbb``caa`bbbbbbb`cccccaaaaaaaaacccaca`bbbbbbbbbbba`cacac`abbbbbbbbbbbcccaa`bbbbbb`acbbbbbbbbbbb",
"b``cacccccaaa`b`bbbbbbbbbaacaab`bbbbbaacaabbbbbbbaaccccccccccccccccccc`a`bb`b`b``cccccaa`abbbbbbbbbbbcccccaabbbbbbbaca``bbbbbbbb",
"bb`baaaccccccaa``bbbbbbbbbaaa``bbbbbbbaac``bbbbbbbaacccccccccaaaaaaacaa`ab`b`b``acccc``bbbbbbbbbbbbbaacccca``bbbbbb`aaa``bbbbbbb",
"bbbbbaacccccccca``b`bbbbb``cac``bbbbb``cac`bbbbbbb`aacccacaa`a`a```aacacaa`aaaaccccc``bbbbbbbbbbbbbcacccccaabbbbbbbaaccc``bbbbbb",
"bbbbbb``aacccccac``bbbbbbb`aaaabbbbbbb`acaa`bbbbbbbb``a````bbbbbbbbb``aacacacacccaa``bbbbbbbbbbbbbcccacccaca`bbbbbbb`accca`bbbbb",
"bbbbbbb``aaccccccc``bbbbbb`aac``bbbbbbbaacaabbbbbbbbb`b``bbbbbbbbbbbbb`aacccccccaa``bbbbbbbbbbb``acccccccccca`bbbbbb`aacccaa``bb",
"bbbbbbbbbb``aacccca`bbbbbb``aaa`bbbbbbb`aaca`bbbbbbbbbbbbbbbbbbbbbbbbbbbaacccccaa`bbbbbbbbbb````cccccacccccca`bbbbbbbb`acccca``b",
"``bbbbbbbbb``accccaabbbbbbbaacaab`bbbbb``ccca`bbbbbbbbbbbbbbbbbbbbbbbbbbbaacacaa`bbbbbbbbbb``accccac`aacacccaabbbbbbbbbaaccccca`",
"ab`bbbbbbbbbbbaaccc``bbbbbbbaaaa`bbbbbbb`acaa``bbbbbbbbbbbbbbbbbbbbbbbbbbb`````bbbbbbbbbbb``aacaa````bbb``accaabbbbbbbbb``aaccc`",
"aca`bbbbbbbbbbbaaccc``bbbbb``ccc``bbbbbb`aaccc``bbbbbbbbbbb`b`b`bbbbbbbbbbb`b`bbbbbbbbbbbaacacaaaabbbbbbb``cccaabbbbbbbbb``acccc",
"cccaabbbbbbbbbb`accaabbbbbbb``cca`bbbbbbbbaacaa``bbbbbbbbb```````b`bbbbbbbbbbbbbbbbbbbbbaacca````bbbbbbbbbb`accaabbbbbbbbbb`aacc",
"ccccaa``bbbbbbbb`ccca`bbbbbbbaacaabbbbbbb``ccccca`bbbbb``a`aaa`a```a``bbbbbbbbbbbbbbb``aaccc`ab`bbbbbbbbbbbb`cccca`bbbbbbbbb`aac",
"aacccaa`bbbbbbbb`acac``bbbbbbbaac``bbbbbbbb`aacccaa`a`a`a`aaa`a`a`a`a``bbbbbbbbbbbbbbbaaaaa``bbbbbbbbbbbbbbbb`aacaa`bbbbbbbbbb``",
"`ccccccc``bbbbbbbaccaa`bbbbbb``caca`bbbbbbbb`aacccccacacaa`aaa`a`aaaaa``bbbbbbbbbbb``aaaaa``bbbbbbbbbbbbbbbbbb`aaccc`bbbbbbbbbb`",
"``aacccaa``bbbbbbbaccaabbbbbbb`acaa``bbbbbbbb`aacccccaaaa````b`b``aaaaa``b`bbbbbbbbb``a``bbbbbbbbbbbbbbbbbbbbbb`aacaa``bbbbbbbbb",
"bb`aacccca`bbbbbbb`ccca`bbbbbbbaacaa`bbbbbbbb``accccccaa``bbbbbbbbbaaaacaa``b`bbb`b``a`abbbbbbbbbbb`b`b`bbbbbbb``aacaa``bbbbbbbb",
"bbb`aacccaabbbbbbb``caa`bbbbbbbbaacaabbbbbbbbb``aacccaa``bbbbbbbbbbb``aacaa``b`b````a``bbbbbbbbbbb`````b`bbbbbbb`baacaa``bbbbbbb",
"bbbb`aaccca`bbbbbbbaacaa`bbbbbb``cccaa``bbbbbbb``ccccc``bbbbbbbbbbbb```aacacaaaaaaacaab`bbbbbbbbb``aaaaa``bbbbbbb``caccc`ab`bbbb",
"bbbbbbaaccc``bbbbbbbaccaabbbbbbb``cccaa``bbbbbbb``cac``bbbbbbbbbbbbbbb``a`aacacaaacaa`bbbbbbbbbba`cacacaa``bbbbbbb``aacccaa``bbb",
"bbbbbbbaccca`bbbbbb``ccc``bbbbbbbaacccca`bbbbbbbbaacaabbbbbbbbbbbbbbbbb`b``cccccccac``bbbbbbb``aacacccacaa``bbbbbbb``cccccca``bb",
"bbbbbb`baacaabbbbbbb`acaab`bbbbbbbaacacaabbbbbbbb`aac``bbbbbbbbbbbbbbbbbbbb`caccccc``bbbbbbb``aacacccacacaa`bbbbbbbb`acacacaa``b",
"bbbbbbb`accca`bbbbb``accaabbbbbbb``accccaabbbbbbb`acaabbbbbbb`bbbbbbbbbbbbb`acccccca``bbbb`aacccacccacacccaa``bbbbbb`acccccccc``",
"`bbbbbbbb`ccc``bbbbb``ccca`bbbbbbb``accac``bbbbbbbaaa``bbbbbbb```bbbbbbbbbb`accccccaa`bbbbaacccaaaa`a`aacaca`bbbbbbbb`aacccccaa`",
"``bbbbbbb`accabbbbbbb`accc`bbbbbbbb``ccccc``bbbbb``aa`bbbbbbb``a``bbbbbbb``accacccccaa```aacccccaa``b``cccaa``bbbbbbbb`cacccccac",
"a`bbbbbbbbaaca`bbbbbbbaccaabbbbbbbbb`acccaa`bbbbbb``abbbbbbbbbaac`a``b````a`a`a`aaaacaa`aacccacaabbbbb``aaaaa``bbbbbbb``aacccaca",
"aa`bbbbbbbbacc`bbbbbbb`cccaabbbbbbbb`acccccabbbbbb`aa`bbbbbbbaacccaa`a`aaaaa``b``aaaacacaccccccc`bbbbbb`acccaa``bbbbbbb`accccccc",
"caab`bbbbbb`cca``bbbbb``cca``bbbbbbb``ccccc``bbbbb``ab`bbbbbb`accccaa`a`a````bbb`b`b``aacccccccaabbbbbbbaacaa``bbbbbbbbb``aacacc",
"ccaa``bbbbbaacca``bbbbbaccca`bbbbbbbb`accccabbbbbb`aa`bbbbbbb`acccccaa`a``bbbbbbbbbbbbba`aaccccc``bbbbbb`accac``bbbbbbbbb``aaccc",
"cacaab`bbbbb`acaab`bbb``cacaabbbbbbbbbaacac``bbbbb``a`bbbbbbb`aacaa````b`bbbbbbbbbbbbbbb``aacacaa`bbbbbb``cccaa`bbbbbbbbbb`b``aa",
"ccccaa``bbbb`cccaa``b``accccca`bbbbbb``cccca`bbbbb`aaabbbbbb`accaa`bb`b`bbbbbbbbbbbbbbbbb``aacccaa``bbbbbaacccaabbbbbbbbbbbbbaac",
"caccca`bbbbb``cccaa`a`aaccccca`bbbbbbb``ccc``bbbbb``a``bbbbb``aaa`bbbbbbbbbbbb`b`b`bbbbbbb``aacccaabbbbbbbaacca`bbbbbbbbbbbbbb``",
"cccccc``bbbbbaaccccaaccccccccca`bbbbb``aaccc``bbbb`a`a`bbbbbbaaa``bbbbbbbbb`b``aaa`a``bbbbba`cccccaa`bbbb``ccca`bbbbbbbbbbbbb`ba",
"cacccaa`bbbb``accacacaaaaacccac``bbbbb``aacaabbbbb``a``bbbbb``a``bbbbbbbbb``a`aaaaaaa``bbbbb``cccac``bbbbb``caabbbbbbbbbbbbbbbb`",
"accccca`bbb``aacccacaa`a`aaccccca`bbbbb``ccca`bbbbbaac``bbbbba`a``bbbbb``aacacacccccca``bbbbbaaccccc``bbbb`aaca`bbbbb`````bbbbb`",
"a`cacaabbbbb``accaa````bbb``accca`bbbbbb`acca`bbbb``aaa`bbbb``a``bbbbb``aaaacacccacacaa``bbbbbaacccca`bbbb``ccabbbbbbb``a``bbbbb",
"`a`caa``bbb``aacaa`ab`bbbbba`acccabbbbbb`acca`bbbbba`aaabbbbb``a`````a`cacccacacccacacaa``bbbb`ccccca`bbbbbaacaabbbbb`acaa``bbbb",
"`b``a``bbbbb`acaa``bbbbbbbbb``acc``bbbbbb`aaa``bbbb`aaa``bbbbb``a`a`aaaacaaaaaaaaaaacaca`bbbbb``caccc`bbbbb`aaa`bbbbb`accaa``bbb",
"b`b```bbbbb`acccaabbbbbbbbbbb``ccc`bbbbbbaacaabbbbb`acaa``bbbb`aacacacacacaaaa`a`aacaccca`bbbbbaacccaabbbbbaaca`bbbbbaaccccc``bb",
"bbbb`bbbbb``acca`b`bbbbbbbbbbbaacaabbbbbb`acc``bbbbb``a``bbbbbb`aacacaa`a`a``b`b````aacca``bbbbbaaccc``bbbbbaca`bbbbb`aacccaab`b",
"bbbbbbbbb``aac`a``bbbbbbbbbbb``aac``bbbbb`acaabbbbbb`aac``bbbbb``aacaa`a``b`bbbbb`baacacca``bbb``cccca``bbb`acaab`bbb`accccc`a``",
"bbbbbbbbb`aacaa``bbbbbbbbbbbbb``aaa`bbbbbbaac``bbbbb``aaa``bbbbbbb```b`bbbbbbbbbbbbb``aacaabbbbb``caca`bbbbb`aca`bbbbb`acaccc``b",
"b`bbbbb``cccaa``bbbbb`````bbbbbaacaabbbbb``cca`bbbbbbaacaa``bbbbbbbbbbbbbbbbbbbbbbb``aacaca`bbbbbaacac``bbbb`ccc``bbbbbaaccccc``",
"`bbbbb``aacca``bbbbb``aaa``bbb``aca``bbbbbacca`bbbbbb`aacaabbbbbbbbbbbbbbbbbbbbbbbbb``aacca``bbbbbaaaaa`bbbb``cca``bbbbbaaccccc`",
"````baacccac``bbbbb``accaa`bbbb`accabbbbb``ccc``bbbbb``cac`abbbbbbbbbbbbbbbbb`bbbbbbb`acccaa`bbbbb`aac`abbbbbaacaa``bbb``aaccccc",
"caa`a`cccaa``bbbbb``aaccc``bbbbbaac``bbbbbaacaa`bbbbbb``aaa``bbbbbbbbbbbbbbbbb`bbbbbbbaacca``bbbbb``aaa``bbbb`acca`bbbbb``accacc",
"ccccccccac`a`bbbbbbaacccca`bbbb``cca`bbbb`acccaabbbbbb`aaccc``bbbbbbbbbbbbb``aaabbbbb``accaa``bbbb`accaabbbbb``ccca`bbbbb``aaccc",
"cccccccaa``bbbbbbb`accccc``bbbbbaac``bbbbbaaccc``bbbbbb`accca``bbbbbbbbbbb``aaca`bbbbb``cccaabbbbb``ccc``bbbbbaacca``bbbbb``aacc",
"ccccccac``bbbbbbb``cccccaabbbbb``caabbbbb``ccccc``bbbbb``accca``b`bbb`b``a`caccc``bbbbbaaccc``bbbbbaccca``bbb``cccaa``bbbbb``acc",
"cccccaa``bbbbbbb``cccac`abbbbbbb`ac``bbbbb``ccccabbbbbbb``aacaa``b`b````aaaacacca`bbbbb`cacaab`bbbb`caca`bbbbb``aacaab`bbbbb``aa",
"acacaa``bbbbbbb``cccccaa``bbbbb`acca`bbbbbbaacccaabbbbbbba`accca`a`aacacacccccccaabbbbb`acccaa`bbbb`accc``bbbbb`acccaa``bbb`b``a",
"``a`a``bbbbbbb``aacaa``bbbbbbbb`ccc``bbbbb``acccc``bbbbbbb``accac`caaacccccccccaa``bbbbb`acaa``bbbbb`ccca``bbbbbaacccaa``bbbbb`b",
"b`b`b`bbbbbbb``aaccc``bbbbbbbbbaacca``bbbbb``ccccc``bbbbbbb``cccccccccacccccccccaa``bbbb`accaa``bbbb`accaa``bbbb`cccccaa``bbbbbb",
"bbbbbbbbbbbb``caaaa``bbbbbbbbb`acaca`bbbbbbb``aacac``bbbbbbb``accccccaa`aaaacccaa`a`bbbb``caca`bbbbb``ccca`bbbbb``aacacaa`bbbbbb",
"bbbbbbbbb``aacccac```bbbbbb```accccc`abbbbbbba`acccc``bbbbbbbaacccccac`a`a`aacccaca`b`bbbaaccc``bbbbbaaccc``bbbbba`cacccaa`bbbbb",
"`bbbbbbb`b``cccaa``bbbbbbb`baaaaccccc``bbbbbbb``accca``bbbbbbbaacccca``b`b`b``aacaa``bbbb`aacca`bbbbb`cccaa`bbbbbb``aacccca`bbbb",
"``b`b`b``aacccaab`bbbbbbbb`aaccccccccc``bbbbbbbaacccca``bbbbbb`aaccc``b`bbbbb``cacaab`bbb``aacaabbbbb``cccaa`bbbbb`a`cccccca``bb",
"`b`b`b``aacca`abbbbbbbbb``aacacccacccaa``bbbbbbb``cccaa``bbbbbb`aaa``bbbbbbbbb``aaa``bbbbb``aaa``bbbbb``caca`bbbbb`b`aaccacccaa`",
"aa`aaaacccccaa`bbbbbbbb``cacccccacccccca``bbbbbbbaaccccc``bbbbb``a`a``bbbbbbbbbaacaa``bbbbbaacaa``bbbb`aaccca`bbbbb``aacccccccac",
"cccacaccccc`a``bbbbbbb``cacccaa`a`aacccaa`bbbbbbbb``cccca``bbbbb```b`bbbbbbbbbb`aacaa``bbb``aacaabbbbbb`cccca``bbbbbbb``aacccccc",
"ccccccccccaa``bbbbb``aacccccaa`a```aacccca`bbbbbbbbaacccca``bbbbb`b`b`bbbbbbbbb``acca`bbbbb`acacaabbbbb`accccc``bbbbbbb`b`acaccc",
"cccccccaa`ab`bbbbb``aacccaa``b`bbbbb``cccaabbbbbbbbb``accaa`bbbbbbbb`````bbbbbbb``ccc``bbbbbaacca``bbbbb``accca``bbbbbbbbb`b``ac",
"ccccccccaa``bbbbb``aacccac``bbbbbbbbbaacccca``bbbbbbb`accccabbbbbbb`acaa``bbbbbb`aacca`bbbbb`aacaa``bbbbbaaccccc``bbbbbbbbbbb``a",
"a`aacaa``b`bbbbb``aacccaa``bbbbbbbbbbb`acccaa``bbbbbbb``ccca`bbbbb``accca``bbbbbb`acc``bbbbb``accaa`bbbbbb`acccca``bbbbbbbbbbb`b",
"```a`a`ab`bbbbb``aacccaa`bbbbbbbbbbbbbbaacccca``bbbbbbbaaccc`abbbbbaacccca``bbbbb``caa``bbb`baacccaabbbbbbbaaccccc`abbbbbbbbbbb`",
"bb`b`b`b`bbbbb``aacaa``bbbbbbbbbbbbbbbbb`acccaa`bbbbbbbb`acca``bbb``aacccaa`bbbbbb``aaabbbbbb`cccac``bbbbbbb``cccacaab`bbbbbbbbb",
"b`b`b`b`bbbbb`acccaa``bbbbbbb`b`bbbbbbbbbaaccccc``bbbbbbbaacac``bbb`accccccabbbbbb`aaca`bbbbbaacccccaabbbbbbbaacccccca````b`bbbb",
"bbbbbbbbbbbb``aacca`bbbbbbbbbb```bbbbbbbbbaaccccc``bbbbbbb`acaa``bbb``ccccc``bbbbb``aaa``bbbbb``cacaa``bbbbbb`aacccccccaaaa``bbb",
"bbbbbbbbb`b`acaccc`abbbbbbbbbaaaaa`bbbbbbbbaaccccc``bbbbbbbaacaa``bbbaaccccc`bbbbbbaacaa``bbbbba`caccc``bbbbb``accccccccccac``b`",
"bbbbbbbbbb``aaaaa``bbbbbbbbba`cacaa`bbbbbbbbaacccaa`bbbbbbbbaac``bbbbbaaccca`bbbbb``aac``bbbbbbb``accaa``bbbbb``aacccacccacac`ab",
"``b`bbb`baacacaaaabbbbbbb``aacccccaa`bbbbbbbbaacccaa``bbbbb``ccca`bbb``accca``bbbbbaaccc`bbbbbbbbaacccca``bbbbb``cccacaa`aacccaa",
"a``b`b```aaacaa``bbbbbbb``aacccccccaabbbbbbbbb`accc`a``bbbbb``caa`bbbb``aaa``bbbbb``acccc``bbbbb`b`acccaabbbbbbbaacaa``b`baaccca",
"ccaaacacacccaa``bbbbbbb``caccccccccca`bbbbbbbbba`cccaa`bbbbb`aaca`bbbbb``a``bbbbbb`acccccc``bbbbb``aacccaabbbbb``caa``bbbbbaaccc",
"cacacccccacaa``bbbbbbb``aacccaaaccccca`bbbbbbbbb``aaca`bbbbb``aac``bbbbb`b`bbbbbbb`acccccaabbbbbbb`baacaa``bbbbb`aa``bbbbbbb`aca",
"ccccccccccaa`abbbbb`b`acacccacaaacccccaa`bbbbbbbb``caa``bbbbbaacca`bbbbbb`bbbbbbb`acccccccaa`bbbbbb``cccaa`bbbbb`aaa`bbbbbbb`aac",
"cccccccccca``bbbbbbb`aaaccc`a``b``aacccaabbbbbbbbb``a`ab`bbbbbaaa``bbbbbbbbbbbbb``cccccccccaa`bbbbbb``ccc`abbbbb``a``bbbbbbbbb``",
"`cccccccca`abbbbbb`aaccccc`a``bbbb`aacccaab`bbbbbbb``a`ab`bbb``aaa``bbbbbbbbbbb`acccccacacccaa`bbbbbb`accc`abbbbbaaa``bbbbbbbbba",
"``aaaacaa``bbbbbbb`aaacca``bbbbbbbbbaacccaa`bbbbbbbb``a``bbbbb``a`a``bbbbbbbbb`acaca````a`cccaa`bbbbbb``caa``bbbbba`a``bbbbbbbbb",
"b`baacaa`abbbbbbb`accccaaabbbbbbbbb``aacccca``bbbbb``caa``bbbbbb`aaa``bbbbb``aaccc``b`b``a`cccca`bbbbbbaacca``bbbb`cac``bbbbbbb`",
"bbbb```b`b`bbbbbb`aacaa``bbbbbbbbbbb`b`aaacca``bbbb`aacaabbbbbbb``cca``b`b``accaa``bbbbb`b``accaabbbbb``acca`bbbbb`accc````bbbbb",
"bbbbb`bbbbbbbbb``aacaa`bbbbbbbbbbbbbbbbaaccccc``b``aaccca`bbbbbbbaacccaa`aacccaa``bbbbbbbbb``ccca`bbbbbaaccc`bbbbbbaccccaa``b`bb",
"bbbbbbbbbbbbbbbbaacaa`bbbbbbbbbbbbbbbbbb`acacacaa`accacaa``bbbbbbbaccacccacccaa`bbbbbbbbbbbb``ccc`bbbbbbaaca`bbbbbb`aacccac``b`b",
"bbbbbbbbbbbbb``aacaa`bbbbbbbb`````bbbbb``aaaacccccacccccaa``bbbbbb`accccccccca``bbbbbbbbbbbb`aaccabbbbb``ccc``bbbbb`acccccccaa``",
"`bbbbbbbbbbb``aacaa`bbbbbbbb``a`ab`bbbbbbb``a`a`a`a`aacacaa`bbbbbbbbaacccccaa``bbbbb`bbbbbbbbb`aca`bbbbb`acaabbbbbbbaacccccccaa`",
"a`bbbbbbbbb``cccca`bbbbbbbbaacccca``bbbbbbb`b``a``b````cacaa``bbbbbbba`cccaa``bbbbb``a`abbbbb``ccc`bbbbbbaaca`bbbbb``cccaaacaccc",
"ca`bbbbbbb``aacaabbbbbbbbb`acacccaa`bbbbbbbbbbbbbbbbbbb`aaa``bbbbbbbbb`````bbbbbbbbbaaa``bbbbb``ca`bbbbb``aacbbbbbbbaaa`````aacc",
"ccaa``b``aacccaa``bbbbbbb`acccccccaa``bbbbbbbbbbbbbbbbb``aaa`a`bbbbbbbbbbbbbbbbbbbbaaccc``bbbbbaac`bbbbbbaaca`bbbbb``a``bbbb`aac",
"cccacaa`cccccaa``bbbbbbb``cccccccccaabbbbbbbbbbbbbbbbbbbbba`a``bbbbbbbbbbbbbbbbbbb`accccabbbbb``ccabbbbb``aaabbbbbbbaaabbbbb`baa",
"acccccccccccaa``bbbbbbbaacacacacccccaa``bbbbbbbbbbb`bbbbbbbaac`abbbbbbbbbbbbbbbbb`accccc``bbbbbaac`bbbbbb`aca`bbbbb``a``bbbbb`ba",
"aacccccccccca``bbbbbbb`acaa`a`a`aacacaabbbbbbbbbbbbbbbbbbbbbaaa``bbbbbbbbbbbbbbb``ccccc`abbbbb``caabbbbbbbaaabbbbbbbaaabbbbbbbbb"
};
