/* XPM */
static char *bulgesmall [] = {
/* bulgesmall pixmap */
" 64 64 4 1",
/* colors */
"` s color0 c #9f9f9f",
"a s color1 c #5f5f5f",
"b s color2 c #dfdfdf",
"c s color3 c #202020",
/* pixels */
"abba``````aabbaab`aa``bab`b``bbbb`bbbcabbb`bbba`bbbbacab`c`ca``b",
"ab``ca`b``a`b`abaa```bb``bb```````bba`bb`b``bb```bbbaa`bbb`a`b`a",
"`a`acc```a``bac``ab`baaa````aa``acabbabab`b``b`a``a`b`b`bbba`bbc",
"baaacb`````a``abb`b``aa``bbb`b```aab`ab``b`a`b`a`b`b`bbbbb```bb`",
"ac`aa`aa``aaaca`b`b```b`aabbac``a```aabbbca```aca``a`bbaba``b```",
"a``a`bca`b``cca`bb```ab`abbb``bbbbbb`aaaaaaaa``acb`b`babbb```a`b",
"aaa`baaabbaaaab``bbbb`b`bbb`ab`bbb`bb````bb```bcca``b`a``b`a`ab`",
"a``bbaa```a`ab`bbbbbbb```bbacaab`a`bbb`bbb``b`acc``aaa`baaaaaa`b",
"aaabbaccaa`bbbbbbb```bbb`abaac```a``bbaa`bba```aacaaca`abcaca`b`",
"aa`b`aa```bb``abbb`a`b`bab``b``bb``bb`cacaacccaaaacac`aa```bb`aa",
"b`ba`bbb```bb`a`bab`bbb``bb``aa`b````aacaaca`c``b``aca`aaa`abaac",
"b```bbbb`bbbbbb``bbbbb```bbbaaaa`b`b`bbbb`a``abbbb`acaa``b`a`aba",
"a`a`bca`a``a`````bb`bba``bbbbbbbb`aabbbb````bcaa`aab``b`bcaab```",
"a`aaaabb`a```baa`bbbbbab`bbbbbbbb`aabbb`cabbbbaaaaa`a`a``aa````a",
"ba`ca`bb``a``b`a`bbbbbabbbbabb`ca``a`bbaa`b`bb```a``baaa`ca`bab`",
"bb```bbbabbbbb``bbbbbbabbbbbbbacabbbbb`a``abbb`b``aa``aaacca```b",
"aba``c`aab`bbababb``bbbbbbbbbbaabbbbbbb```a```b`acccb`acacca```a",
"cacaaaaaabbbb`b``b`bbbbbbbbbbb`abbbbbb`aabb`aa```acaaaccccca``a`",
"b``ca`baa``a`bbaa`b`bbbbbbb`b```bbbbbaa```b`b```b``aa`accccaac`a",
"ba``caabbb`bbbb`bbbbbbbbbb`````bbbbb`abb```bb``````acaccaaaaaaac",
"````````bcabb`a`bbbbbbbbb``bbaa`bbb``bbbbca```b`````baccca`c`bba",
"bb`b`b`b`abbba``aabbbbbbbbbbbac``bbbbbbb`aabaa`b```bb`cacaaaabbb",
"`aa`bba`a`ba``ba``bbb``bbbbb````bbb`bbb`aa`aaca`b`````accccccaaa",
"``bbb`aa`bbaa``aabbbbb```bbb`bbbbbb```b`c```aacaa`aa``aacaaacaa`",
"acb`aaa`bb`a``aaabbbbbbbbbbbb``aa``cccb`aaacccacccacaaaaccccca`c",
"aa`bab`a``aabb`a`bbbbbbbb```a`````aacabb`ac`ccaaccccccabccccaaac",
"aca`bab``acc`bbabbb`bbb``aacaabaaa`a````ba``bcacacccccaaccccacac",
"a``a``b``baca```bbbbbbbb`ac`aacabb``bbaacaabb`a`acccccc`accccca`",
"`c``ac``bbbabbaaabbbb`bb`a```ccab``a```ccabab``aaccaacccacacaca`",
"ba`bb`a`bbbbbbb``ba``abbb``b``c`b`aa`b``a``ba`aaccc`a`cccccaccca",
"ac`aaa``a``bbbba``a`b`bbac``b`aab```b``aaca`aaccccccaacccccccca`",
"```ba`bba`aaabab`b`ba`bbba`bb`ccaaa```ccccca``cccccca`aaccaaa`a`",
"``bba`bb````b```b`b`a`bbbbb`b`cc`````cccccaab`acacccccacac`cccac",
"`bbbab`b```b`a```bb``bbbbb`aaac`bb````cccaa`````accccaaaccaacca`",
"bbb`bb`b`a`aaa`caa`a````bbb`b```bb`a`accaccaccaacccccccaaccccaac",
"``bb`b`bbaaccccccccccaaaab```bbbbb``aaa``acccccccccccccaccccccc`",
"`cbbb`bbbccccccccccca`b`ac``b``a`bbbb`bbb`accccccccaccccacacccca",
"``ab```a`baccaaaa`ca```ac`aa`b`ac`a```bb``aaaacccccacacccccacca`",
"`aa```ba`ab`aabab`aab``ca`b``aaccccab``aaaaaacacccccaaaaccccccac",
"`a```````ab````a`bca``aaca`bbb`baccaaccaccc`aaa`cccccaaacccccccc",
"``ba`caa``b``b`aa`ac```aaca`b```accccc```cccccaaccaacccccccccccc",
"`b`b`aaaaab`````aba``bb`acc``accccccc```aaa`cccacaaaccccccacccab",
"b`bab``a``b``cca````bb`accaa`accccacca`cca`aaaaa```aacaacccccabb",
"b``````a```aacca`b`abb`aca````cccaa`aaccc`aaa```a`aaaaaaaccac`ba",
"b`aaa`````aaccccacaa```cc`b``accaa`a`c`cccccaa`acccccccaacccab`a",
"b````babb`cccaccccc````aabbbaccccaa```bb``cac`aacccccacccaaaa```",
"`aac`aa`baac`aaa`aacaa`aaa`acccccaaa``bbb`acaaccaaacccccaaac````",
"`bccccc`aaa```a``acccccacccccccaaaccca```aacccccccccccca``cc`bab",
"`caaac``aa```c``b``cccccccacccacaaaccacccaaccccccccaccccaacc``aa",
"aab``aaaca`baa`````baacccccccacca```a`cccccccaaacca`aaccc`a```ab",
"``b``a`acc`aaaaa`a```a`cccccaaccccaa`ccacccccaacac```cccaa`a``aa",
"`b`a`aaaca`acac``acaaa`aaacccaa`accaaac`caacccc`acabaaaaaba`abab",
"`c`ab`b`acacccccccccccaaaaacccaacccaccaaccccccc`acccccccaa``bcaa",
"aaa``b`b`ccacccccacacca`caaca`accccccaaccaccccc`ccccccc```ab`aca",
"`cabb```bcaaacccaccccaaaccccacccccccaccccaacaaacaccaaaaaaca`baca",
"b``baaab`aaacccca`ccc`aacca`aaccccccccccc`ccaaccaac`aa``aaaaa`a`",
"b`b`aaccaa``acccaacccccaccccccccca`accac`accccccacccacbbaaabbc``",
"```a`ba`aaaacccacccaaacacaccaccccaacccca`acccccca`aab``bb`cab`aa",
"b``a``a``abacaaaacccccaaa`acaaccccaccaccaccccccaaabbb`b`b`ac`aa`",
"b`ca`b`b``b`c`aacca`ccaac`aaaacaaacac`ccccccccaab``bbbbbabbbb```",
"a`aa`bb`acbaabbaaca``ccaccccacacccaccaaaccccacacaa``acb``b`````c",
"aaca```ba`aa`baacca`aacaccccccccccccaacaaacccb`aaaccabbb`bbbb`cc",
"baca`a`ba``a`aaaacaaaaacaaccacccacccccac`aaca```acac```aaab``ccc",
"`ba`bb`b`b```aa`aaa`aaacabaaa`ccaaaaccccccaabbbb``cccac``bab`aac"
};
