/* XPM */
static char *bulge [] = {
/* bulge pixmap */
" 64 64 4 1",
/* colors */
"` s color0 c black",
"a s color1 c sgi dark gray",
"b s color2 c sgi light gray",
"c s color3 c white",
/* pixels */
"`cb`abaaab``cc``ca`aaac`bacaacaccabcc``cccaccc`accbc```ca`b``aac",
"`baa``abaa`aca`c``baabbaabcabab`baca`acc`ba`bbaaaabb``babba`bba`",
"a`aa``aaa`aac``aa`bbb``aaaaa``ab```cb`b`babb`caaab`ababaacc`abb`",
"c`a``bbabab`ba`bbab`b``abbbbacaab`aab`baaca`bba`ababaacbccaaabba",
"``aa`a`aab`a```bbabbaaca``bb``aa`bab`acbc``baa```aa`acb`c`abbaaa",
"aab`ab``abaa```abbaaa`ca`cccbabcbabba`````a``ab``bab`c`bbbaab`ab",
"`a`ab`a`bc`a`abb`ccbbacaccca`cacac`ccaaaacbaabb```abcb`aacaaa`ba",
"aaabb``baa`a`b`ccbcbcbaaacc````bb`acccabbaaaca```ba```ab``a`a`ab",
"`a`bca```aaccbccbc`b`bcba`b```baaaaabb``acc`aab`a`aa`aa`c````bba",
"a`bba``ababcaa`acab`acab`baacaaccaabba`a```````a`````aa`aaabcaa`",
"bab`acccab`bca`ab`baacbbabcaaa`abaaaa````a`aa`aabbaa`aaa``a`b```",
"bababcbbabcacacaaccbccaaacbb````abababbbca`ab`cacab````aacb`b`c`",
"`b`ac``b`ba`ab`babaacc`babcccccbba``bccc`babb``aaa`caabbb```baab",
"`aa```bba`babaa`aaccca`cabcacbcbbaa`cbba``bacb``a`aa`b`aa`aaaaa`",
"c`a``acbab`aaca`abccbb`bccc`bca``aa`abb`aacacbaaaaaab``aa`aab`ca",
"bcaaabbc`bbcbbaacabacc`acccabb```bbcbca`aa`bcaabaaa`baa`a```aaab",
"`c`ba`a``c`cc`b`bbaabbbbbccbcb`abcbccbbbab`aaabb````bb``a``aaaa`",
"````a``a`bccb`caacacbbccbbcbcba`bbcccba``bba``aaa```a```````ba`a",
"bab``bc``aa`abc``ababbccccbabaabbbccb``aaabbbaaacaaa`ba````a``ba",
"c`aa```bcbabbacabccccbbabbaaaaabcccca`bcaaaabaaaaaa`````a`a`a```",
"aaabaaaab``bcb`abbccccccbaabba`abbbaabcbb``baacaaaaaba```aa`acb`",
"bbabacaca`ccc`aa``bcccccccccb``aabbbbccca``ba`abaaabba`a``a`aacb",
"a``abc`b`bc`aab`abbbcaabbcccaaaabcbabbab`aa````abaaaaaa``````a``",
"babcbaa`aab``aa``bbabbaaabcbabbbcbbaaaba`abaaa``aaa`baa``aaa``aa",
"``ca`a`bbcaaaa`a`bbbabbbbbbbbba``aa```ba`a````a```a``a`a`````aa`",
"a`ac`ba`aaa`bcb`accbcbccbaaa`aaabaa```bba``a``aa``````ab````a`a`",
"a``ab`caa```abb`ccbabbbaaa```aba``aaaaabbaabb```a``````a````a`a`",
"`ab`bacaab```aaabcbbbacba``aa```bcaabb`````bbaaaa``````aa`````aa",
"a`aa``aabcb`bb`a`bbbbaccaaaba``abaaaaaa``ab`caaaa``aa```a`a`a``b",
"c`acca`abbbbcccabb`aa`ccbaabaa`aca``abaaaabb`aa````aaa`````a````",
"``a``aab`aacbcb`aa`bcabb``aaba`abaabbbaaa``b`a```````a`````````b",
"aaab`abc`a```b`babab`abbb`abba`````aaa``````ba``````aaaa``a`aaaa",
"abbb`bbbababbaaababa`bccccbacb``aaaaa````aa`baa`a```````a`b`````",
"abbc`bacaaaba`baabbaabbcbba````abbaaba````aaaaaaa````aa```aa``aa",
"bcbacbaba`b`aaa``aaaaaaacbbbcbabbba`aa``a``a``aa```````aa````aa`",
"aabaacacb`a``````````````baaabbabbaa```aa``````````````a```````a",
"a`bcbabcb```````````aacb``abbaaaabccbabbbaa````````a````a`a````a",
"aa`baaa`bb```aa`aa``aaa``a``acb``a`aaabbaaa`aa`````a`a`````a``aa",
"aa`baab`a`caa`b`bb`abaa`abbaa``````abaaa`a`a``a`````a`aa``````a`",
"b`aabaaab`baaab`bb``baa```abbbbba``a```````aa`aa`````aa`````````",
"aab`a`a`babbacaa`b``aaaaa``abaaaa`````aba````a`a`aaa````````````",
"ababa``a``baaaaa`b`aacbaa``ab````````abaa`aa```a``````````a````c",
"bab`baaaaabaa``aabaabbaa``a`aa````a``aa``aaa`aa`aabaa`aa``````cb",
"baaaaaa`aaa`a```aba`bba```aaaa````aa`a```aa`aaaaaaa`a`a`a``a`ab`",
"ba`a`baaab`a````a``aaba``abbaa``aaaaa`a``````aaa```````a`a```caa",
"babaab`bca```a`````aaaa`abbb```````aaabbaa`a`aa``````a````aa`aaa",
"a```aa`ab`a`aa`abaa`aaaa`aaa`````aaaabbbbaa`aa``aaa``````aa`abab",
"ac`````a`a`aaa`aa``````a```````aa`````aaa`a`````````````ba``ab`b",
"a``aa`ab`aaaa`aabba```````a``aa``aa``a```aa````````a`````a``aa``",
"a`caa`a```aba`baaaaba```````````aaaaaa```````aaa``aaaa```aaaaaab",
"aabbaaaa``a``a`aaaaaaaa`````aa````aaa``a`````a``a`aaa```a`aaaa``",
"aca`b````aaa`a`ab```a`b`a`````aaa```aa`a`aa````aa``ba`aa`c`a`b`b",
"a`a`babaa`a````````````a`aa````a```a```a```````b````````a`bac`aa",
"`aaaababa``a`````a`a``aa``a`aba``````aa``a`````a```````aab`ba```",
"a``cbaaab`aaa```a````a`a````````````a````aa`aaa`a``a`a`a```aba`a",
"baac```ba`a`````aa```aa```aaaa```````````a``a```a``aa`aaa`a``a`a",
"baba`a```aab`a``aa`````a`````````aba``a`aa```````a````cc`a`cc`bb",
"aab`ab`aa``````a```aaa```a``a````a``````b```````aa``caacba``ba``",
"bbaaaa`ba`ba`aa`a`````aaaaa``a````a``a``a``````a``bbbabacb``aa`b",
"ba``acabaaca`a`a``aa``a``aa`a``aa``a`a````````a`caaccacb`acacaaa",
"`b`aacba``b``cbaa`aab``a````a`a``aa``aaa````a````aaa``baac`b`ab`",
"a```aaab`b`aab`````a`a`a````````````a```aa```bb`a````bbbabbcba``",
"b``aa`ac`ab`aa`aa`aa`aa`aa``a```a`````a`b`a``aab``a`bba```baa```",
"ab`acbabacaab`aaa`aaa`a``ba`aa``a`aa``````a`cabbaa`````aac`bb`a`"
};
