#define v_width 14
#define v_height 14
static unsigned char v_bits[] = {
   0x00, 0x00, 0x78, 0x00, 0x84, 0x00, 0x02, 0x01, 0x02, 0x01, 0x02, 0x01,
   0x02, 0x01, 0x84, 0x00, 0x78, 0x03, 0x00, 0x07, 0x00, 0x1e, 0x00, 0x1c,
   0x00, 0x0c, 0x00, 0x00};
