/* XPM */
static char *dotsmall [] = {
/* dotsmall pixmap */
" 128 128 4 1",
/* colors */
"` s color0 c black",
"a s color1 c sgi dark gray",
"b s color2 c sgi light gray",
"c s color3 c white",
/* pixels */
"aaaaaaaaaaaaaaaaaaaaaaaaaaaaaaaaaaaaaaaaaaaabaaabaaabaaabaaabaaabaaabaaabaaabaaabaaabaaaaaaaaaaaaaaaaaaaaaaaaaaaaaaaaaaaaaaaaaaa",
"abaaabaaabaaabaaabaaabababababababababababababababababababababababababababababababababababababababababababababaaabaaabaaabaaabaa",
"aaaaaaaaaaaaaaaaaaaaaaaaaaaaaabaaabaaabaaabababababababababababababababababababababababaaabaaabaaabaaaaaaaaaaaaaaaaaaaaaaaaaaaaa",
"aaaaaaaaaaabaaabaaabaaababababababababababababababbbabbbabbbabbbabbbabbbabbbabbbababababababababababababababaaabaaabaaaaaaaaaaaa",
"aaa`aaa`aaa`aaaaaaaaaaaaaaaaaaaaaaaabaaabababababababababababababababababababababababababaaabaaaaaaaaaaaaaaaaaaaaaaaaaa`aaa`aaa`",
"aaaaaaaaaaaaaaaaaaaaaaaaabaaababababababababababbbabbbbbbbbbbbbbbbbbbbbbbbbbbbabbbababababababababababaaaaaaaaaaaaaaaaaaaaaaaaaa",
"a`a`a`a`a`aaa`aaaaaaaaaaaaaaaaaaaabababababababababababbbabbbabbbabbbabbbabbbabababababababababaaaaaaaaaaaaaaaaaa`aaa`aaa`a`a`a`",
"`aaa`aaaaaaaaaaaaaaaaaabaaababababababababbbbbbbbbbbbbbbbbbbbbbbbbbbbbbbbbbbbbbbbbbbbbbbababababababaaabaaaaaaaaaaaaaaaaaaaa`aaa",
"a`a`a`a`a`a`a`a`a`a`aaaaaaaaaaaaaaaabababababababbbabbbbbbbbbbbbbbbbbbbbbbbabbbabababababababaaaaaaaaaaaaaa`aaa`a`a`a`a`a`a`a`a`",
"`a`a`a`a`a`aaa`aaaaaaaaaaaaaababababababbbabbbbbbbbbbbbbbbbbbcbbbcbbbcbbbbbbbbbbbbbbbbabbbababababaaabaaaaaaaaaaaa`aaa`a`a`a`a`a",
"a`a`a`a`a`a`a`a`a`aaa`aaaaaaaaaaaabababababababbbbbbbbbbbbbbbbbbbbbbbbbbbbbbbbbbbbbbbabababababaaaaaaaaaaaaaa`a`a`a`a`a`a`a`a`a`",
"`a`a`a`a`a`a`aaa`aaaaaaaaaababababababbbbbbbbbbbbbbcbbbcbcbcbcbcbcbcbcbcbcbcbbbbbbbbbbbbbbbbababababaaaaaaaaaaaa`aaa`a`a`a`a`a`a",
"````````a```a`a`a`a`a`a`aaaaaaaaaaaabababababbbbbbbbbbbbbbbbbbbbcbbbbbbbbbbbbbbbbbbabababababaaaaaaaaaa`aaa`a`a`a`a`a```a```````",
"`a```a`a`a`a`a`a`a`aaaaaaaaaababababababbbbbbbbbbcbbbcbcbcbcbcbcbcbcbcbcbcbcbcbbbbbbbbbbbbababababaaaaaaaaaaaa`a`a`a`a`a`a`a`a``",
"``````````````a`a`a`a`aaaaaaaaaaaabababababbbbbbbbbbbbcbbbcbcbcbcbcbcbcbbbcbbbbbbbbbbbbbbabababaaaaaaaaaa`a`a`a`a`a`````````````",
"```a```a`a`a`a`a`a`a`aaaaaaaaaababababbbbbbbbbbcbcbcbcbcbcbcbcccbcccbcbcbcbcbcbcbbbbbbbbbbbbababababaaaaaaaa`a`a`a`a`a`a```a```a",
"````````````````a`a`a`a`aaaaaaaaaaaabababbbbbbbbbbbbcbbbcbcbcbcbcbcbcbcbcbbbcbbbbbbbbbbabababaaaaaaaaaa`a`a`a`a`a```````````````",
"`````````````a`a`a`a`a`aaaaaababababababbbbbbcbbbcbcbcbcbcbcccbcccbcccbcbcbcbcbcbcbbbbbbbbababababaaaaaaaa`a`a`a`a```a``````````",
"``````````````````a`a`a`a`aaaaaaaabababbbbbbbbbbbbcbcbcbcbcbcbcbcbcbcbcbcbcbcbcbbbbbbbbbbabababaaaaaaaaaa`a`a`a`````````````````",
"```````````a```a`a`a`aaaaaaaaaababababbbbbbcbcbcbcbcbcccbcccccccccccccccbcccbcbcbcbcbbbbbbbbababababaaaaaaaa`a`a`a`a````````````",
"````````````````````a`a`a`a`aaaaaababababbbbbbbbcbcbcbcbcbcbcbcbcbcbcbcbcbcbcbbbcbbbbbbabababaaaaaaaaaa`a`a`a```````````````````",
"`````````````````a`a`a`aaaaaababababbbbbbbbbbcbcbcbcccbcccccccccccccccccccbcbcbcbcbbbcbbbbbbbbababaaaaaaaa`a`a`a`a``````````````",
"``````````````````a`a`a`a`aaaaaaaabababbbbbbbbcbcbcbcbcbcbcccbcccbcccbcccbcbcbcbcbcbbbbbbabababaaaaaa`a`a`a`a```````````````````",
"```````````````a`a`a`aaaaaaaaaababababbbbbbcbcbcbcccccccccccccccccccccccccccbcccbcbcbbbbbbbbababababaaaaaa`a`a`a````````````````",
"````````````````````a`a`a`a`aaaaaababababbbbbbbbcbcbcbcbcccbcccccccbcccbcbcbcbcbcbbbbbbbbbbabaaaaaaaaaa`a`a`a```````````````````",
"`````````````````a`a`a`aaaaaaaabababbbbbbbbbbcbcbcbcccccccccccccccccccccccccccbcbcbcbcbbbbbbbbababaaaaaaaa`a`a``````````````````",
"``````````````````````a`a`aaaaaaaabababbbbbbbbcbcbcbcbcccccccccccccccccccbcbcbcbcbcbbbbbbabababaaaaaa`a`a`a`````````````````````",
"`````````````````a`a`a`a`aaaaaababababbbbbbcbcbcbcccccccccccccccccccccccccccccccbcbcbcbbbbbbababababaaaa`a`a`a`a````````````````",
"````````````````````a`a`a`a`aaaaaababababbbbbbbbcbcbcbcbcccccccccccccccbcccbcbcbcbbbbbbbbbbabaaaaaaaaaa`a```````````````````````",
"`````````````````a`a`a`aaaaaaaabababbbbbbbbbbcbcbcbcccccccccccccccccccccccccccbcbcbcbcbbbbbbbbababaaaaaaaa`a`a``````````````````",
"``````````````````````a`a`aaaaaaaabababbbbbbbbcbcbcbcbcccccccccccccccccccbcccbcbcbcbbbbbbabababaaaaaa`a`a`a`````````````````````",
"```````````````````a`a`a`aaaaaabababbbbbbbbcbcbcbcccccccccccccccccccccccccccccccbcbcbcbcbbbbababababaaaa`a`a`a`a````````````````",
"````````````````````a`a`a`a`aaaaaababababbbbbbbbcbcbcbcbcccccccccccccccccccbcbcbcbbbbbbbbbbabaaaaaaaaaa`a```````````````````````",
"`````````````````a`a`a`aaaaaaaabababbbbbbbbbbcbcbcbcccccccccccccccccccccccccccbcbcbcbcbbbbbbbbababaaaaaaaa`a`a``````````````````",
"``````````````````````a`a`aaaaaaaabababbbbbbbbcbcbcbcbcccccccccccccccccccbcccbcbcbcbbbbbbabababaaaaaa`a`a`a`````````````````````",
"`````````````````a`a`a`a`aaaaaababababbbbbbcbcbcbcccccccccccccccccccccccccccccccbcbcbcbbbbbbababababaaaa`a`a`a`a````````````````",
"````````````````````a`a`a`a`aaaaaababababbbbbbbbcbcbcbcbcccccccccccccccbcccbcbcbcbbbbbbbbbbabaaaaaaaaaa`a`a`````````````````````",
"`````````````````a`a`a`aaaaaaaabababbbbbbbbbbcbcbcbcccccccccccccccccccccccccccbcbcbcbcbbbbbbbbababaaaaaaaa`a`a``````````````````",
"``````````````````````a`a`aaaaaaaabababbbbbbbbcbcbcbcbcccbcccccccccccccccbcbcbcbcbcbbbbbbabababaaaaaa`a`a`a`````````````````````",
"```````````````a`a`a`aaaaaaaaaababababbbbbbcbcbcbcccccccccccccccccccccccccccbcccbcbcbbbbbbbbababababaaaaaa`a`a`a````````````````",
"````````````````````a`a`a`a`aaaaaababababbbbbbbbcbcbcbcbcbcbcccbcccbcccbcbcbcbcbcbbbbbbbbababaaaaaaaaaa`a`a`a```````````````````",
"`````````````````a`a`a`aaaaaababababbbbbbbbbbcbcbcbcccbcccccccccccccccccccbcccbcbcbbbcbbbbbbbbababaaaaaaaa`a`a`a`a``````````````",
"``````````````````a`a`a`a`aaaaaaaabababbbbbbbbbbbbcbcbcbcbcccbcccbcccbcbcbcbcbcbbbbbbbbbbabababaaaaaaaaaa`a`a`a`````````````````",
"```````````a```a`a`a`aaaaaaaaaababababbbbbbcbcbcbcbcbcccccccccccccccccccccccbcbcbcbcbbbbbbbbababababaaaaaaaa`a`a`a`a````````````",
"````````````````````a`a`a`aaaaaaaaaabababbbbbbbbbbbbcbcbcbcbcbcbcbcbcbcbcbcbcbbbbbbbbbbabababaaaaaaaaaa`a`a`a```````````````````",
"`````````````a`a`a`a`a`aaaaaabababababbbbbbbbcbcbcbcbcbcbcbcccbcccbcccbcbcbcbcbcbcbbbbbbbbababababaaaaaaaa`a`a`a`a```a``````````",
"``````````````a```a`a`a`a`aaaaaaaabababababbbbbbbbcbcbcbcbcbcbcbcbcbcbcbcbcbcbcbbbbbbbbbbabababaaaaaaaaaa`a`a`a`````````````````",
"```a```a`a`a`a`a`a`a`aaaaaaaaaababababbbbbbbbbbcbcbcbcbcbcbcbcccbcccbcbcbcbcbcbcbbbcbbbbbbbbababababaaaaaaaa`a`a`a`a`a`a```a```a",
"````````````````a`a`a`a`aaaaaaaaaaaabababababbbbbbbbbbbbcbbbcbcbcbcbcbbbcbbbbbbbbbbbbbbabababaaaaaaaaaa`a`a`a`a`a```````````````",
"`a```a`a`a`a`a`a`a`aaaaaaaaaababababababbbbbbbbbbcbbbcbcbcbcbcbcbcbcbcbcbcbcbcbbbbbbbbbbbbababababaaaaaaaaaaaa`a`a`a`a`a`a```a``",
"``````````a`a`a`a`a`a`aaaaaaaaaaaabababababbbbbbbbbbbbbbbbcbbbcbbbcbbbcbbbbbbbbbbbbbbabababababaaaaaaaaaa`a`a`a`a`a`a`a`````````",
"`a`a`a`a`a`a`aaa`aaaaaaaaaababababababbbbbbbbbbbbbbcbcbcbcbcbcbcbcbcbcbcbcbcbbbcbbbbbbbbbbbbababababaaaaaaaaaaaa`a`a`a`a`a`a`a`a",
"a```a```a`a`a`a`a`a`a`a`aaaaaaaaaaaabababababbbabbbbbbbbbbbbbbbbbbbbbbbbbbbbbbbbbbbabababababaaaaaaaaaaaaaa`a`a`a`a`a`a`a```a```",
"`a`a`a`a`a`aaa`aaaaaaaaaaaaaababababababbbabbbbbbbbbbbbbbcbbbcbbbcbbbcbbbbbbbbbbbbbbbbabbbababababaaabaaaaaaaaaaaa`aaa`a`a`a`a`a",
"a`a`a`a`a`a`a`a`a`aaaaaaaaaaaaaaaabababababababbbabbbbbbbbbbbbbbbbbbbbbbbbbbbbbbbabababababababaaaaaaaaaaaaaa`aaa`a`a`a`a`a`a`a`",
"`aaa`aaaaaaaaaaaaaaaaaaaaaababababababababbbbbbbbbbbbbbbbbbbbbbbbbbbbbbbbbbbbbbbbbbbbbbbababababababaaabaaaaaaaaaaaaaaaaaaaa`aaa",
"a`a`a`a`a`a`a`a`aaa`aaaaaaaaaaaaaaaabababababababababababbbabbbabbbabbbabbbabababababababababaaaaaaaaaaaaaaaaaa`aaa`a`a`a`a`a`a`",
"aaaaaaaaaaaaaaaaaaaaaaaaabaaababababababababbbabbbbbbbbbbbbbbbbbbbbbbbbbbbbbbbabbbabbbababababababababaaaaaaaaaaaaaaaaaaaaaaaaaa",
"a`aaa`aaa`aaaaaaaaaaaaaaaaaaaaaaaabaaabababababababababababababababababababababababababababaaabaaaaaaaaaaaaaaaaaaaaaaaaaa`aaa`aa",
"aaaaaaaaaaaaaaabaaabaaababababababababababababbbabbbabbbabbbabbbbbbbabbbabbbabbbabbbababababababababababaaabaaabaaaaaaaaaaaaaaaa",
"aaaaaaaaaaaaaaaaaaaaaaaaaaaaaaaaaaaabaaabaaabababababababababababababababababababababaaabaaabaaaaaaaaaaaaaaaaaaaaaaaaaaaaaaaaaaa",
"abaaabaaabaaabaaabaaabababababababababababababababababababababababababababababababababababababababababababaaabaaabaaabaaabaaabaa",
"aaaaaaaaaaaaaaaaaaaaaaaaaabaaabaaabaaabaaabaaabaaabaaabaaabaaabaaabaaabaaabaaabaaabaaabaaabaaabaaabaaabaaaaaaaaaaaaaaaaaaaaaaaaa",
"abababababababababababababababababababababababababababababababababababababababababababababababababababababababababababababababab",
"baaabaaabaaabaaabaaabaaaaaaaaaaaaaaaaaaaaaaaaaaaaaaaaaaaaaaaaaaaaaaaaaaaaaaaaaaaaaaaaaaaaaaaaaaaaaaaaaaaaaaabaaabaaabaaabaaabaaa",
"abababababababababababababababababababababababaaabaaabaaabaaabaaabaaabaaabaaabaaabaaabababababababababababababababababababababab",
"babababababababababababaaabaaabaaabaaaaaaaaaaaaaaaaaaaaaaaaaaaaaaaaaaaaaaaaaaaaaaaaaaaaaaaaaaabaaabaaabaaabababababababababababa",
"abbbabbbabbbabbbababababababababababababababaaabaaabaaaaaaaaaaaaaaaaaaaaaaabaaabaaabaaababababababababababababababbbabbbabbbabbb",
"bababababababababababababaaabaaaaaaaaaaaaaaaaaaaaaaaaaa`aaa`aaa`aaa`aaa`aaa`aaaaaaaaaaaaaaaaaaaaaaaabaaababababababababababababa",
"bbbbbbbbbbbbbbabbbababababababababababaaaaaaaaaaaaaaaaaaaaaaaaaaaaaaaaaaaaaaaaaaaaaaaaaaabaaababababababababababbbabbbbbbbbbbbbb",
"babbbabbbabbbabababababababababaaaaaaaaaaaaaaaaaa`aaa`aaa`a`a`a`a`a`a`a`a`aaa`aaaaaaaaaaaaaaaaaaaabababababababababababbbabbbabb",
"bbbbbbbbbbbbbbbbbbbbbbbbababababababaaabaaaaaaaaaaaaaaaaaaaa`aaa`aaa`aaaaaaaaaaaaaaaaaabaaababababababababbbbbbbbbbbbbbbbbbbbbbb",
"bbbbbbbbbbbabbbabababababababaaaaaaaaaaaaaa`aaa`a`a`a`a`a`a`a`a`a`a`a`a`a`a`a`a`a`a`aaaaaaaaaaaaaaaabababababababbbabbbbbbbbbbbb",
"bcbbbcbbbbbbbbbbbbbbbbabbbababababaaabaaaaaaaaaaaa`aaa`a`a`a`a`a`a`a`a`a`a`aaa`aaaaaaaaaaaaaababababababbbabbbbbbbbbbbbbbbbbbcbb",
"bbbbbbbbbbbbbbbbbbbbbabababababaaaaaaaaaaaaaa`a`a`a`a`a`a`a`a`a`a`a`a`a`a`a`a`a`a`aaa`aaaaaaaaaaaabababababababbbbbbbbbbbbbbbbbb",
"bcbcbcbcbcbcbbbbbbbbbbbbbbbbababababaaaaaaaaaaaa`aaa`a`a`a`a`a`a`a`a`a`a`a`a`aaa`aaaaaaaaaababababababbbbbbbbbbbbbbcbbbcbcbcbcbc",
"cbbbbbbbbbbbbbbbbbbabababababaaaaaaaaaa`aaa`a`a`a`a`a```a```````````````a```a`a`a`a`a`a`aaaaaaaaaaaabababababbbbbbbbbbbbbbbbbbbb",
"bcbcbcbcbcbcbcbbbbbbbbbbbbababababaaaaaaaaaaaa`a`a`a`a`a`a`a`a```a```a`a`a`a`a`a`a`aaaaaaaaaababababababbbbbbbbbbcbbbcbcbcbcbcbc",
"cbcbcbcbbbcbbbbbbbbbbbbbbabababaaaaaaaaaa`a`a`a`a`a```````````````````````````a`a`a`a`aaaaaaaaaaaabababababbbbbbbbbbbbcbbbcbcbcb",
"bcccbcbcbcbcbcbcbbbbbbbbbbbbababababaaaaaaaa`a`a`a`a`a`a```a```a```a```a`a`a`a`a`a`a`aaaaaaaaaababababbbbbbbbbbcbcbcbcbcbcbcbccc",
"cbcbcbcbcbbbcbbbbbbbbbbabababaaaaaaaaaa`a`a`a`a`a```````````````````````````````a`a`a`a`aaaaaaaaaaaabababbbbbbbbbbbbcbbbcbcbcbcb",
"ccbcccbcbcbcbcbcbcbbbbbbbbababababaaaaaaaa`a`a`a`a```a```````````````````````a`a`a`a`a`aaaaaababababababbbbbbcbbbcbcbcbcbcbcccbc",
"cbcbcbcbcbcbcbcbbbbbbbbbbabababaaaaaaaaaa`a`a`a```````````````````````````````````a`a`a`a`aaaaaaaabababbbbbbbbbbbbcbcbcbcbcbcbcb",
"ccccccccbcccbcbcbcbcbbbbbbbbababababaaaaaaaa`a`a`a`a```````````````````````a```a`a`a`aaaaaaaaaababababbbbbbcbcbcbcbcbcccbccccccc",
"cbcbcbcbcbcbcbbbcbbbbbbabababaaaaaaaaaa`a`a`a```````````````````````````````````````a`a`a`a`aaaaaababababbbbbbbbcbcbcbcbcbcbcbcb",
"ccccccccccbcbcbcbcbbbcbbbbbbbbababaaaaaaaa`a`a`a`a```````````````````````````````a`a`a`aaaaaababababbbbbbbbbbcbcbcbcccbccccccccc",
"cbcccbcccbcbcbcbcbcbbbbbbabababaaaaaa`a`a`a`a`````````````````````````````````````a`a`a`a`aaaaaaaabababbbbbbbbcbcbcbcbcbcbcccbcc",
"ccccccccccccbcccbcbcbbbbbbbbababababaaaaaa`a`a`a```````````````````````````````a`a`a`aaaaaaaaaababababbbbbbcbcbcbccccccccccccccc",
"cccbcccbcbcbcbcbcbbbbbbbbbbabaaaaaaaaaa`a`a`a```````````````````````````````````````a`a`a`a`aaaaaababababbbbbbbbcbcbcbcbcccbcccc",
"ccccccccccccccbcbcbcbcbbbbbbbbababaaaaaaaa`a`a```````````````````````````````````a`a`a`aaaaaaaabababbbbbbbbbbcbcbcbccccccccccccc",
"cccccccccbcbcbcbcbcbbbbbbabababaaaaaa`a`a`a```````````````````````````````````````````a`a`aaaaaaaabababbbbbbbbcbcbcbcbcccccccccc",
"ccccccccccccccccbcbcbcbbbbbbababababaaaa`a`a`a`a`````````````````````````````````a`a`a`a`aaaaaababababbbbbbcbcbcbccccccccccccccc",
"cccccccbcccbcbcbcbbbbbbbbbbabaaaaaaaaaa`a```````````````````````````````````````````a`a`a`a`aaaaaababababbbbbbbbcbcbcbcbcccccccc",
"ccccccccccccccbcbcbcbcbbbbbbbbababaaaaaaaa`a`a```````````````````````````````````a`a`a`aaaaaaaabababbbbbbbbbbcbcbcbccccccccccccc",
"cccccccccbcccbcbcbcbbbbbbabababaaaaaa`a`a`a```````````````````````````````````````````a`a`aaaaaaaabababbbbbbbbcbcbcbcbcccccccccc",
"ccccccccccccccccbcbcbcbcbbbbababababaaaa`a`a`a`a```````````````````````````````````a`a`a`aaaaaabababbbbbbbbcbcbcbccccccccccccccc",
"cccccccccccbcbcbcbbbbbbbbbbabaaaaaaaaaa`a```````````````````````````````````````````a`a`a`a`aaaaaababababbbbbbbbcbcbcbcbcccccccc",
"ccccccccccccccbcbcbcbcbbbbbbbbababaaaaaaaa`a`a```````````````````````````````````a`a`a`aaaaaaaabababbbbbbbbbbcbcbcbccccccccccccc",
"cccccccccbcccbcbcbcbbbbbbabababaaaaaa`a`a`a```````````````````````````````````````````a`a`aaaaaaaabababbbbbbbbcbcbcbcbcccccccccc",
"ccccccccccccccccbcbcbcbbbbbbababababaaaa`a`a`a`a`````````````````````````````````a`a`a`a`aaaaaababababbbbbbcbcbcbccccccccccccccc",
"cccccccbcccbcbcbcbbbbbbbbbbabaaaaaaaaaa`a`a`````````````````````````````````````````a`a`a`a`aaaaaababababbbbbbbbcbcbcbcbcccccccc",
"ccccccccccccccbcbcbcbcbbbbbbbbababaaaaaaaa`a`a```````````````````````````````````a`a`a`aaaaaaaabababbbbbbbbbbcbcbcbccccccccccccc",
"cccccccccbcbcbcbcbcbbbbbbabababaaaaaa`a`a`a```````````````````````````````````````````a`a`aaaaaaaabababbbbbbbbcbcbcbcbcccbcccccc",
"ccccccccccccbcccbcbcbbbbbbbbababababaaaaaa`a`a`a```````````````````````````````a`a`a`aaaaaaaaaababababbbbbbcbcbcbccccccccccccccc",
"cccbcccbcbcbcbcbcbbbbbbbbababaaaaaaaaaa`a`a`a```````````````````````````````````````a`a`a`a`aaaaaababababbbbbbbbcbcbcbcbcbcbcccb",
"ccccccccccbcccbcbcbbbcbbbbbbbbababaaaaaaaa`a`a`a`a```````````````````````````````a`a`a`aaaaaababababbbbbbbbbbcbcbcbcccbccccccccc",
"cbcccbcbcbcbcbcbbbbbbbbbbabababaaaaaaaaaa`a`a`a```````````````````````````````````a`a`a`a`aaaaaaaabababbbbbbbbbbbbcbcbcbcbcccbcc",
"ccccccccccccbcbcbcbcbbbbbbbbababababaaaaaaaa`a`a`a`a```````````````````````a```a`a`a`aaaaaaaaaababababbbbbbcbcbcbcbcbccccccccccc",
"cbcbcbcbcbcbcbbbbbbbbbbabababaaaaaaaaaa`a`a`a```````````````````````````````````````a`a`a`aaaaaaaaaabababbbbbbbbbbbbcbcbcbcbcbcb",
"ccbcccbcbcbcbcbcbcbbbbbbbbababababaaaaaaaa`a`a`a`a```a```````````````````````a`a`a`a`a`aaaaaabababababbbbbbbbcbcbcbcbcbcbcbcccbc",
"cbcbcbcbcbcbcbcbbbbbbbbbbabababaaaaaaaaaa`a`a`a```````````````````````````````a```a`a`a`a`aaaaaaaabababababbbbbbbbcbcbcbcbcbcbcb",
"bcccbcbcbcbcbcbcbbbcbbbbbbbbababababaaaaaaaa`a`a`a`a`a`a```a```a```a```a`a`a`a`a`a`a`aaaaaaaaaababababbbbbbbbbbcbcbcbcbcbcbcbccc",
"cbcbcbbbcbbbbbbbbbbbbbbabababaaaaaaaaaa`a`a`a`a`a```````````````````````````````a`a`a`a`aaaaaaaaaaaabababababbbbbbbbbbbbcbbbcbcb",
"bcbcbcbcbcbcbcbbbbbbbbbbbbababababaaaaaaaaaaaa`a`a`a`a`a`a```a```a```a`a`a`a`a`a`a`aaaaaaaaaababababababbbbbbbbbbcbbbcbcbcbcbcbc",
"bbcbbbcbbbbbbbbbbbbbbabababababaaaaaaaaaa`a`a`a`a`a`a`a```````````````````a`a`a`a`a`a`aaaaaaaaaaaabababababbbbbbbbbbbbbbbbcbbbcb",
"bcbcbcbcbcbcbbbcbbbbbbbbbbbbababababaaaaaaaaaaaa`a`a`a`a`a`a`a`a`a`a`a`a`a`a`aaa`aaaaaaaaaababababababbbbbbbbbbbbbbcbcbcbcbcbcbc",
"bbbbbbbbbbbbbbbbbbbabababababaaaaaaaaaaaaaa`a`a`a`a`a`a`a```a```a```a```a`a`a`a`a`a`a`a`aaaaaaaaaaaabababababbbabbbbbbbbbbbbbbbb",
"bcbbbcbbbbbbbbbbbbbbbbabbbababababaaabaaaaaaaaaaaa`aaa`a`a`a`a`a`a`a`a`a`a`aaa`aaaaaaaaaaaaaababababababbbabbbbbbbbbbbbbbcbbbcbb",
"bbbbbbbbbbbbbbbbbabababababababaaaaaaaaaaaaaa`aaa`a`a`a`a`a`a`a`a`a`a`a`a`a`a`a`a`aaaaaaaaaaaaaaaabababababababbbabbbbbbbbbbbbbb",
"bbbbbbbbbbbbbbbbbbbbbbbbababababababaaabaaaaaaaaaaaaaaaaaaaa`aaa`aaa`aaaaaaaaaaaaaaaaaaaaaababababababababbbbbbbbbbbbbbbbbbbbbbb",
"bbbabbbabbbabababababababababaaaaaaaaaaaaaaaaaa`aaa`a`a`a`a`a`a`a`a`a`a`a`a`a`a`aaa`aaaaaaaaaaaaaaaabababababababababababbbabbba",
"bbbbbbbbbbbbbbabbbabbbababababababababaaaaaaaaaaaaaaaaaaaaaaaaaaaaaaaaaaaaaaaaaaaaaaaaaaabaaababababababababbbabbbbbbbbbbbbbbbbb",
"babababababababababababababaaabaaaaaaaaaaaaaaaaaaaaaaaaaa`aaa`aaa`aaa`aaa`aaaaaaaaaaaaaaaaaaaaaaaabaaabababababababababababababa",
"bbbbabbbabbbabbbabbbababababababababababaaabaaabaaaaaaaaaaaaaaaaaaaaaaaaaaaaaaabaaabaaababababababababababababbbabbbabbbabbbabbb",
"bababababababababababaaabaaabaaaaaaaaaaaaaaaaaaaaaaaaaaaaaaaaaaaaaaaaaaaaaaaaaaaaaaaaaaaaaaaaaaaaaaabaaabaaababababababababababa",
"abababababababababababababababababababababaaabaaabaaabaaabaaabaaabaaabaaabaaabaaabaaabababababababababababababababababababababab",
"aabaaabaaabaaabaaabaaabaaabaaabaaabaaabaaaaaaaaaaaaaaaaaaaaaaaaaaaaaaaaaaaaaaaaaaaaaaaaaaabaaabaaabaaabaaabaaabaaabaaabaaabaaaba",
"abababababababababababababababababababababababababababababababababababababababababababababababababababababababababababababababab"
};
