#define galleryDirView4_width 14
#define galleryDirView4_height 14
static char galleryDirView4_bits[] = {
   0x07, 0x00, 0x33, 0x1c, 0x4b, 0x02, 0x71, 0x1c, 0xb1, 0x18, 0x01, 0x00,
   0x01, 0x00, 0x85, 0x02, 0x07, 0x08, 0xc7, 0x07, 0x8f, 0x23, 0x1f, 0x10,
   0x2f, 0x08, 0xcf, 0x07};
