#define dirview2_width 14
#define dirview2_height 14
static char dirview2_bits[] = {
   0xc0, 0x00, 0x30, 0x03, 0xcc, 0x0c, 0x34, 0x0b, 0xd4, 0x08, 0x54, 0x08,
   0x54, 0x08, 0x54, 0x08, 0x54, 0x08, 0x58, 0x0c, 0x70, 0x03, 0xfc, 0x0f,
   0xf0, 0x03, 0xc0, 0x00};
