#define list_width 14
#define list_height 14
static char list_bits[] = {
   0x03, 0x00, 0xfb, 0x3f, 0x00, 0x00, 0x03, 0x00, 0xfb, 0x3f, 0x00, 0x00,
   0x03, 0x00, 0xfb, 0x3f, 0x00, 0x00, 0x03, 0x00, 0xfb, 0x3f, 0x00, 0x00,
   0x03, 0x00, 0xfb, 0x3f};
