/* XPM */
static char *midgranitesmall [] = {
/* midgranitesmall pixmap */
" 128 128 4 1",
/* colors */
"` s color0 c #9f9f9f",
"a s color1 c #5f5f5f",
"b s color2 c #dfdfdf",
"c s color3 c #202020",
/* pixels */
"``baccaaaa`a`a```aa`b``a`bb`acaaaa`cccccccaa``bccccccccab`acaca```````````````baa```baaa`cccccccaa```aaa``baaaacccaca````caaaa``",
"a``acaccc````bbbbb```b```b`aa`ccaaaacccccca``bb`accaaaabbbaca``b```````b``aaa`aaa`````aaaaaaccccaaab`aa`bbbbaacccaa`````aaaaaaaa",
"aa`aacaca```bbb`b``a`b`a`bbaaaacaa`cccaacc``bbbb`ca````bb`ccc`b````````````caaccca````acccacccca`a```aaabbb``ccaaa```````a`aaccc",
"caaaaaa``b`b`b`b`b``bbaaa``aaaaaaaaacc`baa`b`bbbaca``bbbbbaccbbb`````````````bcccaa`a``accccccc```````a``bb```a`a`a`````````aaca",
"ccacaa````````b`aab`baaaacacccaaaccccc`````````aaccca`bbb`ac``b``````````a````baacaaca`aaccccca``ab``aaaa`b``accccaa```a`aacccca",
"aaaacaaa``a`````cc`b``aacccacccaaacacaa``b````````ccabbb`acaa`a``aaaa``b``a``bbb`aaacaa`aacccca`a``baccca`bb`acccaaa`b``aacccca`",
"`aacccacaaaaaaa``c```aacccccccaaacaaacccaa```aaaaaaab`b``aacccccacccaa```a``b`b``aaaaaaaaccccccaaa`aacccaa```cccaa`a`````accacaa",
"`acccacaaacaa``b``````aacacacaa`aaaa``aacaaaaacccaa`aa`b``a`aaaaaaaaaaa````b```b````a``b`accccaaab`acccaaaaaacca`b````aa``cccaca",
"`aacccacccca`bbb````acccccaa``b``caabbb`acaaacccccaccc`bba`````````aaca`b```b`````acccbbbbbacc``bb`ccccccccccca`b``a`ccc`accaccc",
"`b``aaaaaaaa`bbb```acccccca``bbbaa````b`aacaaacaaaaccca```a``b`b`b`````b`b`bbbaaa````bbbbbb`a``bbb`cccccccccccab``aaccccaacaaaca",
"b`b``aaaaaaabbbb```ccccaacaaa`bacc`acc`accccaaacccacccaa``````b`````b`````bbbaccca``bbbbbbb`b`a`bb`cccccccccccccacccacacacacaaaa",
"`b`b`accccc`bbb``b`aa```a```ab``caa`cc``caa`aacaaaaacaaaa````b`b`b`b`baa`bbbbacaa``bbbbbbb``b`aa`b``cccccccccccccccaaa``aacaa`a`",
"``b`acccccc`bbbaaaaa````b```b``cccaaaa`````b`ccccaacacaa```````````````abbb`baca`bb`bbbbbb`a``b`b``b`cccaaacaccccc````b``cca```a",
"````accccccbbb`aacccaac`bb`bbb`ccccaa`a``b`bb`acc`a`aaab```b`b`b`b`b``abbbbb``cabbbb`bbb``a`aaa``b`b``a``baaacccca`b`b`b`ac``b`a",
"`aacacacca``bbacacccacc`b`bbb``accca`aa```bbbbb``````a``b```b```b```b```bbbb``aabbbb``b`accccca`b`b`b```b``aacccca```````aaa``aa",
"accccaaaca```ba`aaa`aa`bbbbbbb``ccc``aa``bbbbbbb``bbbbbbbb```b```b`bbb``bbb``b``````abb`cccccccbbbbb`b```baacccaaacaa```aacacaaa",
"acccacacccccaa`a`a``acaa`bb```b`ac```a`````bbbbb`abbbbbbbb`a``b````````abbbca`b``aacca`accaaaca`bbb````ccaaaaca``cccaa`aacccccaa",
"accaaacacccccaaaa`bbacccabbaca``aa`b`aab```bbbbb``bbbbbbbbb``bbb```acacc`bbac```aaaacaaccca``b`b`b``a``aca````````ccc````acccca`",
"`aaaacacccccccccaa```ccca`baaab`aa```a``b`bbbbbb``bbbbb`aa``bbbbbaacccccabb`aa`aaaaccccccca`bbb``aaaaa`ccc`aaa````acaa```acccca`",
"aaaaaacccccccccccaca`accabbb```b`b```b``bbbbbbbbbb`bbbb`caa``b`b`accccccabbb`b`accccccccca`bbb``aaaacaaacaccca```b``a``b`accccc`",
"`aaaacacccccccccccccaaaca`b`b`bb``aa```ca`bbbbbbb`b`bbb``aaa`a`aacccccccabb`aa`ccccccccca`bbb``aa``aa`acccccccaa``b`b`b```acccc`",
"aaaaaaaacaaaa`accccacaa``bb`a``baaa``bacca``ab`aa````bbb`````b``aacacaa``bb`a``accaaccccabbbbbbb`baa``aacccaaaa``bbbbbbb`b`accc`",
"`a`aaa`aaab`b`ccacccccabbb`ccab`aa``b`acccaaaaaaacaa``b`b```b``aca``````bbba`bb`aa`acccc`bbbbbbbb`accaaaacccccaabbbbbb`a``b``aaa",
"`b```b``a``bb`a``accccabbb`aca``acabbbaccaa`aaa`aaab`b`b`b`b`b`b```b```bbb`a`b`bbb``ccca`bbb`b`bbbaccaaacccccaaa`bbbbb`aa``bb`a`",
"```aa`b````bb````aacac`bbaaaacaa`ca`bbacca`a`aa``a``b`b`````b`b``aaaaa``b``caaa`bbb``aca``b``cca``aa`aaacccccccca`b`b`acaa`a`caa",
"aaa````bbbbb`b`b```aaa`baacacaa````bbb`aab`aa`a`````bb`b`b`b`b`acacaa``bbb`aacca`bbb``aa```b`ac`bb`b``aacccccacccca```caa```acca",
"aaa`b``a`````a````b`aa``accaaa``bbbbbb`cc``ccaa`````b```b`b`b`acccaa````b`b`accabbbaaaaaaca`````bbb``aacccaa```cccaa`cccaaa`bccc",
"```bb`cccccaaa`bbbb`aaa`caaaa``bbb`bbb`cccaaccabbb`bbb`aa`````aacaa``b```b``aa`bbb`acccaacc``````bbb`acccaabbbb```a`aacaa`aaaaca",
"`a`b`cccccccacaa``b``ccaaaa`b```ba``b`baccaccc````a`b`acca`aaaacccaa``b````````bbbb`ccccacca`aaca```accccc`bb```baacaaaa``acaa`a",
"``abaacacccccccaa``b``c````b``aaca`b`aa`aaaaca``cac`a`ccca``aacacaa`a`````````a``bb`cca`accaaacccaaacaaacaab``a`accca`aa``aca```",
"````acaaccccccccaa``b``aac``acccca```aaa``accc`accc```acaa`aacacaa``aca`b````aaca`b`aa```aaaacca`aacca`acc``aaaaaccccaac``acaa``",
"`aa`aaaacccccacccaa```aacca`aaccca```ac``acccaaaccca```aaaaaaacaab`````b`bb`a`ccabbb`a``aaa`aacccacccbacca`b````aaccca``b`cccaa`",
"acccccaccccca``ccccaa``ccc`aacacaa``bac``cccacaaacacacaaacaaacaca``````a``b`accca````a``aca`b`cccccccaac``b``a```aaccc```cccccaa",
"aacca`aaccca`b`accccaaaacab`aaaa```bb`ca``a`a`````aaaaaaaaa`aaccab`b`aaa``a`aaccc```bbbb```bb`cccccccaaa````aac``b`ccaabaccccaaa",
"cccc```acccc```cccccccaaa`bb`aa`b```b`aabb``````b`aaccaa````aaaa``b``a```acc`accc`b```ba``bbbaca`cccca`aaaaaacccca`ccccaacca`aaa",
"cccc``aaccccabacccaacaabbbbbbbabbb`bbb``bb```bbb``acccc````b`b`ac`bbbbbb`aca``accbbbaaaaabbbbba```a``b`b`aaaa`aacaaaaacccaa`b`aa",
"acccccacccccaaacccaacc``bbbbb`bbbbbbb`b````a``bbb`ccccca``b``bbaaabbbbbbaccca``caabbb`ac``b``aaabbb`bbbbbaaa``b`acccccacaca`baaa",
"``accccacccc``aaaa`b```bbb`bbbbbbb`bbbbbaaaa`bbb``aaacccca`bbbbbbbbbbb``cccca`aacabbbbaa``aacac`bbbbbbbb`````bbbaccccccaaaa```c`",
"`accccccccaab`a`bbbbbbbbbbbbbbbb`ccca`bb`aac``b```b``acccc`bbbbbbbb`bb`cccccaaaaaa```aaabaccccaabbbbbbb````a``b`acaa`a```cca````",
"accaaacaa`ab```bbbbbbbbbbbbbbbbb`cccc`bb`acca``b```bb`cccabb`b`a`bb``b`acccacaaaaa`baca```cacaa``bbbbbb``b```b``aaaaabbb`acaa`bb",
"`cca`aaca```aca`b`bbbbbbbbbbbbbb`cccccaa`accc````a`bbacccc`b``ac`bb`ac``cc`cccaaa`bb`caaaaacaaaa``bbbbb`bbbbb`b`acacccb`acaa``bb",
"``caa`aca`aaccc```bbbb`bbb```aa``acccccaa`aaa`````abbb``aacaa``a`bbb`aa`cc``aa````bbb`aaa`aaa`aaa``bbbbb`bbb```b````a``acaa`bbbb",
"b`aa`aacaaacccccc`b``aaa``acaaccccccccccaa````b`b`aabbbb`ccca`b`bbb```accca`bbbb```bbbaaaaaaaaacaa`bbbb`bbb```bbb`bbbb`aaccc``bb",
"bb`b`aaaaccaaccaabb`aaa```cabbaccacccccca```a``bbb```bb`acc``b```b````acccc`bbbb```bbb`aaaaaaaaaaa`bb`a`bbbb`b`bbbbbbb``aaccca`b",
"b`b``caaacaa`a`bbbbaaca``acc`cccca`acccc`a`aaa````b````aacaa`aac``ccccaaaccabbb````acc`````aacaaa```baa`bbb```b```bbbbb``aac``bb",
"bb``accaaacaa``bbbb`aa`bbbacccccc```cccc``a`a`aaca```b`b`acaa`aacaccccaaccc`bbbb`baaccabbb`acaa`a``b``aa`````bbba`bb```ba``b`bbb",
"b``accccaacca```bbb`aa`bbb`cccccc`b`cccca``````ccc````b`b``a`a`aacccccacccccaa`bb``aaca````aacaaaaaaaaccaaaaaa`a```aaa````bbbbbb",
"`baccccaaacaa````b``aa`bbb``cccaabb`aaacab`bbb`acca``b`b`b`b```b``cca`aacccccca`bb`aaaaaaa``accccccacaaaa`cccaaaab`aa`bb`bbbbbbb",
"`accccaa`aaa`caa```acc```aaaccca``b``aaaa`````accca```b`b`b`````b`acaaccccccccc`bbba`a```aaaaccccccaaa`aacacaaacaa```bb```bbbb``",
"`acccaa```a`accca``acccaa`acccca`b``aa```b`b``cccca``bbb```b`b`b``````aacaa`accbbbb`ca``a`aaa`accaa``aaaaacac`aaa`a`bb`aabbb``a`",
"acccccaaaa```acccccccccca``cccccaccccc``````b`acacaa``b`aab`````b``a`cccaa``ac`bb``aaa``aaaa```caa`aaaaaacccca`a````bb`ca`bb`aa`",
"aaaaaaaaa`a```ccccccccccca`accccccccca`acaca`baccccabbbba``````b`b``cccaaaaac``b`aca`b`b`````b`cc```a`aacaccca``a`bbbbb`a`bb`aa`",
"aa`aacacaaaa``acaaacccccccaa```cccccc``ccccabb`cccaabbb`b``a````b``aaaaaccccca``acaaa`bbb``a```accaa``accccccca````bbbb`aa`````a",
"aacacaaaa`aaa````b`acaaaab`a`bbacaaaa`acccabbbb`a`acabbb``cca`a``b```bb`caccc```accaabbb`b`````acaa``baacccccaa``aabbbbbaaca``aa",
"acaa`aaccacca`b`b`b``ab`bbba`bb`c`bbb`accabbbbbbb`ba``bbb`ccaccc`````bbaacca`bac`aacc`b`bbb``aa```bbb`acccccca`aaa`bbb`aacca``ac",
"aaa```aacaaccb`bbb``a``bbb```bbba`bbab`aca`bbb```bbb`b`bbbcacccca````b`acacc`bacabacca```b``caabbbbbb`acccccabaaa``bbba`acca`aca",
"`a`b`aaaaa`cc`````acccaa```aa`bbb`````bb`ab`b``abbb`````bb`aacccaaaa```acaaca``caaccccaa```aaa`bbbbbb`acacca``aa``b``acccc```cca",
"`bbbaaa`a``ac`````aacccccacccabbbb`bb`aaabbb`bbbbb``aa```bbbbb`aaacccaaccca``bbac`cccccc```````b```bbb`aa`a```aaa```acccca``acc`",
"``b`ccca```ccabbb``acccccccccc`bbbbbbaccca`caa`a```acc`aa`bbbbb````cca`ccca`bbba```cccca```````ccc``b`````b`aa`accaaacacaaaaacca",
"a```aaa```aaabbbbb`b`acccccccc`bbbbbbb`aaaaccccccaa``bbb`bbbbb```b``a````b`b`b```bacc``b`b`b``accaa````bbbb`aa`baccccccaa`accaa`",
"`aa````aacaaa`bbbbbbb`cccccccc`bb`bbbbb``aaccccccaa`bbbbb``bbaccca``````b`b`aaaca``ca`bbb````aacccacac``b`b`aabb`accccccaaaca```",
"`aa```aacccaca``bbbbb`cccccaa``baaa`bb`bb`ccccccaaa`bbbba``bbacccca````b`bb`aacca````bbbbba`aacaa`cacaa`bbb`c```accccccaaaaa````",
"`accacccccaacca`bbbbbacccccc``b`aaaab`bbbacccaaa`aa`bbbacabbbaccccca```````a`accaa`````caaaaaccaaaaccc`abbbaaa`aacccccccacac````",
"aacccacccaaaaaabbbbbaaccccca`bbb``a`bbbb`acccb```b`bbbb`a``bbbaaccca`baacacca`ca```b```aa`a`a`a`aaaacaa`bb`aaaa`aaccccccaacaa```",
"acacacccccaaacabbbb`accccca``a`aaca`b``aacccc``acca`b``aaa``baaaacaab`accccccaaa``b```b`b`b`aa`aacacaca`bacccccaacccccccaccaa``a",
"aacaaacacacaaaa``bbbaaaacaa`ca``caa`aaaaccccabbaccab`acaccabbaca`aa``b``acccc``````b`b`bbbbb````caaaaaca``accccccccccccaaaa``b``",
"`aacacacccac`aaccabb`caa`aaacc`acccaaccccca`bbb``abb`ccccccabaccaaacccaaacccca``````b`bbbbb`bbbacc```aaca`baccccccacacccaaa`bb`a",
"``aaccccccccabacccab`aa```aaa```cccaaacaa`bbbbbbbbbbbacccccca`accccccccaca``a````````bbbbbaabbaccc`b`bbbbbbaccccc```acccaaca`b`a",
"ccaacccccc`acaaa`cc``cca```aaa``acca```aa`bbbbbbbbbbb`cccccccab`acccccca`bbbb````ca`b`b``acc`ccccc`bbbbbbb`ccccca`b``acccacc``ac",
"caacccccc```aaa`accaacc`````a`````a`a`bbaa`bbbbbbbbb``acccccc```cccccccabbbb``aaacabbb````ccaaccccab`bbbbbacccca`bb```cccacca`aa",
"```cccaccca```accccccca````````a```cccbb`abb`abbbaa`a``ccccaaa`accccaaaabbb`acccaca`b``a`accccaccc````bbbb`aaca`bbb`acccaccaaa`a",
"b``acaaccccbb`ccccccccca``a``b````accabbbbbbaca`aaab`bacccc``b`acacca`ca`b``cccaaaca`b`aaacccaaaca`ba``bbb`bb`a`bbbbaaaaaaa```a`",
"baa``caccabbb`acccccccccaaaa```a```a``bbbbbb`cccccbbbacccca`bbb`a``a`accaaaa`ccc`acc`bbcccaccccccca`ccaa```````bbbb`bbbaac``b`bb",
"`b`aaaaac`bbbbb`caaccccca````````b``aa`bbbbb`acccc`b`aaaa``bbbbb`bbbb`aca``b``ca`acc`bb`aa````accccacaaaa``aa``bbb`bbb`acaa`bbbb",
"`b`caaacccbbbbbbbbbaccccaa```a``````cca`b`a`accccca```b`bb`a``b```bbbaaca```bbbaacaabbb`aa`bb``aaccccccaaaacc`bbbbbbbb`cccaabbb`",
"bbb```acccabbbbbbbbccccca`aa`b```b`accca`acaaacacca`bbbbbbbbaacaaabb````a``bbbbaccabbb`aca`bbbbb`acacccccaccab```b`b`baaaacaabbb",
"```````ccca`b``a```ccaaca`cc``b`b``ccccc``aaacaa`a``bbbbbbbb`ccca`bbb``ccc``b``acc`bb`acac`bbbb``aaaacccaaaa`aacacca`aaaaaaccab`",
"a```a`accc`bbb`aa`accacca`a``bbb`baccaaa`b`bb````bbbbbbbbbbbaaccc`bb`aaacaaaa`aaa`bbb`aaca`bbb``accaaaaaa```aacccccca```aacaa```",
"``bbbaaaacabbbacacacacccccaa``b`b`ba`a``bbbbbb``b``bbbbb`abb`aa`a`b`ba``aaaca``aa`bbb`accc`bba`aacccaaacaa``accccccca`b``aaa````",
"bbbbbb`bb``bbb`acacaaaaccccaa````bbb`bbbbbbbbba``aa``bbbacabbbbbaaa`bbb`aaca`bbb`b`bb`cccca`aaaaaccaaaaaaaaacccccca`bbbb``aaa`ab",
"`a````bbbbbbb``accaca`baccccccaaaa`a``bbbbbbbaaca````bbbaca`bbbbacca``bb`ccaaa``b`aab`ccccccccaaacaa`aaa`a``accccc``b``aac`a`cca",
"cccacca``bbbb`aacaca`bbbaacacaaacaaaabbbbbbb`ccaabbbbbbb`ac```bb`aaa`bbb``caaac```ca``cccccccccaaaa```a````b`acaa``b``caca`b`cca",
"ac`accacaaa`baacacaa`bbbbaaa``b`acccaa`a`````cca`bbbbbbbbaca`a``b```bb`aa`b``aaaaccabb`cccccccaaaa``b`aaacaab`b`bbbbb`aaaabb`cc`",
"a``acaacccc`b`cccaaa`bbbb`cabbbbb`aaa`aacaccaac`bbbbbbbbb`caa``bbb`b``cccabbcccaccca`bbaca``aaa`aaabbba`aaca`bbbbb`bbb`aaaa``aca",
"`aa``aacccaaacccccac`bbbb`ac`bb`b``cccacccccca``bbbbbbbb`aacca```````ccaac``acccccccaaacc`bbb````ca``aacacccaaa````a``baacccaacc",
"``ab`aaccccacccccaaccaa``````bb``b`acacaccccc``a`bbbbbb`cccaca`b````cccaaa``ccccccc`cca``bbbbb```bb`aaaacacccccccaccc```a`a`aacc",
"````accccccccccccaacccc`b``a``bbbb`aaaaccccccaaca`bb`aacccaa``b`````accc`caaacacccc`aca```bbb``a```aaa`aacccccccccacacaaa`baaaac",
"a`b`cccccaaacacccaaaca`bbb``a`bbbb```acccacaaacaabbbaccaaaa``bbb````aaccaccacaacccc`acccca``bbaaaaaacaaacacccccccca``aca`bb`aacc",
"aa`accccccaaaaacaa````bbb`````bbbbbaacccaaaaacccaabbacaaacaa``bb```cccccccccca`accaccccaa``a`bbaacccccccccccccccccaa`a``b``aaccc",
"caaacccccca```aa`b```bbbbbbb`bbbbb`acccca`accacccaab`aa```aaabbbbbb`aaccccccca``caaacaaa`ba``bb`acccaaaaaacacaaaa``b```b``aaa`aa",
"ccaaccccacaa````bbb`b`bbbbbb```bb`ccaccca`aaaaacaca`b``a`aacc`bbbbb````aaccca`b``aaa```aacacaa`acccca````aaaaabbb````a```ccca``c",
"caaacaca`bca``abbbbbbb`bbbbbb``b`acccaaac``aca`b`aabbb`aaacac`bbbbbb`b`b`accabbb``a`bbaccccacaaacccca`````aaabbbbbbb`bbbaccaab`a",
"aa`acccc```a`ccabbbbbbbbbbbbbbbb`aacccaccc`cccbbbbbbbbacacaccc``b````a```aaca`b`b`a`b`acccacccaa`acca```b`aca`b`bbbbbbb`ccaaaa`a",
"caacccccabbb`ac```aabbbbbbbbbbbbaaaaaaaccaaaaa`bbbbbbbaacaaacaa``b`b`aa`aaaac`bbbb``aacccaaacccca`````a```aaa`aaa``bbbb`ca``aaaa",
"acccccccca```aa`bacc`bbbbbbbbbbaaaa``aacaca``aaca`aa```accacaccc``b```aaac``aab``bbaccaa```aaccccab``aaa`aaaa``cca`aa`bb`a`acaaa",
"`acccccccccb```b`ac`bbbb``a`bb`cc``bb`aaa`````aacaccccaacacccaccab`bbbaaca`baaacabbba````b`b``ccc`````a`aaaaab`a``aaab`bbbacc``b",
"`cacccccccca``b`accab````aa````ca`b`b``aca```a`aaaccccaaaccccccca`bbb``ccc```ccca`bbbbb`aca``aacaaaa`aaaacccaa``b`ac`bbbbb`cccbb",
"aacccccaccca`b``accaaaaa```bca```bbb`b``ccaaaaaccaccca``cccccacaabbbb`aacaa`acccc````b`accab`bb`a`aaa```accca`a`aacabbb`bbb`aa`b",
"acccccaacccabbb`acccaaaa`a``acbb``````b``aaaaaacccccaab`acccccaa``bb```a`acccccccaac`b`ccc``bbb`aaacaa``accccaaccccaaccc`bbb`aaa",
"cccccacaca`bbbb`aacaa`a`aac`aabb````aa`bb`aca`aaccca`bbb`acaca`````b``a```cccccccccc`b`cccca`bbbaacccaa``aaaa`acccccccca`bbb``aa",
"ccccccacaa`bbbb`acacacaaacccac`bb`acaca`baacca```acccc`b`cccaa`aaaccacaa```cccccccacab`aaccca`b`acaaacaaaaacaaccccacccca```a`aac",
"cccccacacaa`bbb`aacacacaaacacaca``ccc``bb`aacaab`baaccc`aacaaaaacaacccc````acccaaacaab``aaccaaa```aaa`aaaacccacaca`accca````aaa`",
"baccaaaccca`b`acacccccaaacacccaccaaca`bb`aacccaa`bbaccaaaaaaaaaaaab`ccca```acc```cacaa```aacaaaab`acaaacacccaaaa``bacccab`b``a``",
"bbaaaaacccab``cccacacacacacccc`acaa``bbb``accaaaabbaca``cacaaacaabbbccccab`ac``b`aaaccc`b`aaa`a`baaaaacccacacaa`bbb`aaca`b````cc",
"b`aa`aaaaca`b`accaacacaccccccc`accca```````aacaaa``aa``accaaacaa`bbacccca``aaa`b`aaccccc`accac``baaaaccccccccca`bbb`acaa``aa`acc",
"bb``aaaaa``b`accc``````acccaccccccc```a``bbb``aaa`aaabb`ca``````abb```cca`aaa``b`bbaccccccccc`a`bbaacacacccccc`bbbb`a``b``aaaaca",
"bbb`acaa`bb``cccaa``b``cccccccccccc```aabbbbb``aaaacabb``a`a`aa```bbbbacacccccca``b`accccccc``bbbb`cccaacccccc`bb`b`b`b```acccca",
"bb``aaa``bbbaccacaa`bb`accccccccccc``b`bbbbbbb``aaca`baaaccaccc``bbbbbaaccccccccab``aaccca```a`bbbbac``acccaaa`b`b`bbb`ac`aaaacb",
"bbbaacaa`a`aacccac``bbb`acca``acccaacabbbbbbbbb``ccaaccccccccccc`bbaccaccccccaaca`acccaca`b`ac```bbb``b`ccca``bbb````aacca```caa",
"`b``aaaaa`cacaaaa``bbbbb`ac`bbaccaaac`bb`bbbbbbb`ccccccccccaccca`baccccacccccacccaccccaaab``abbb``bbbbbb``c``b`b`b``aacccabb`aac",
"``b`b``a``accc````bbbbbbb`ca`acccc`aaa`b``bbbbbb`cccccca`aaaaca`b`accc`accccccccccacacacca`a``b``a`bbbbbbb``b```b``ccccccabb`a``",
"`bbbbb`bbb``a``bbb`bbbbbbbca`aaacca`aa`bbbbbbbbbacccab`b``aaccabbbacc```cccacccaaaaacacaca``a`a`aaabbbbbbbbb`aa```acccccca`b````",
"bbbbbbbbb`bb`a``b`````b``aaabaaaacccaabbbbbbbbbccccca`b`acacccc`b`accc``acccccccacacacaccc`aacccaca`bbbbbbb`aca````cccccaa`accaa",
"`bbbbbbb```bb````aa`ca``aaabb`a``acca`bbbbbbbb`ccccc`b``cccccccaa`acca`b`acccccaaaa`aaaaa`````caaaa``bbb`aaaa`````b`a`aca``accca",
"bbbbb``````bbbaaaca`acaaaabbb`a`b````abbbbbb```accccaaa`acccccccccaccca`baccccccaa```aaaa`b``aacaaaa````accca`b`a`bbbb`ca``acccc",
"bbbbbb``````bb```````aaaa``bbba`bbbb``bbbbbbbb`aaacaaaa`aacaccacccccccca``cccccccaa`aacaa```a`aacaa```cacaaaaa```bbbbbaaaaaccac`",
"`a`````````a``aa`bb``cccccca````bbbacabbbbb`bbbaacacac``baaccc`acccccccc```aaccccaa`accc````aaacaa`aacccccaccca`bbbbb`a``caca```",
"acca`bbb````accabbbbbbaacaa``b```b`acabbbb``bbb`cacaaa`bbbaac`b`aacccacaaaa```aaabb`aaca`b`aa`aaa```aacccaaaccc`bbbbbb`b``aa`b`b",
"accc``bbb`b`aca`bbbaa``aaa`a`aaccaaacc``bb`````aacccaaaa``acc`b`aaccaaacaca````````aaaa`b`aca`aa``baa`acaa``acaa`aa`bbbb`aaa``a`",
"cccca``b`bb`a``bbbacab``ab``a`accaaaccaaab`baaaccccccaccabacab````aaa`aaaaa`a``b``ca```bbacca`a``b``a`aaa```````accaa```aacca`a`",
"acaccc``b`accab`bb`a`bb``````a`````aacacaa`aacacccccccac`acca`b``a`a`````caaaabbbaca``b``cccaa`````aaaaaaa``b````cccaa`aacacaaaa",
"``aacaa``accca`````b`bb`a````bbb````aaa``acaa`aaaacaca```accabbb`aaaab``aacaabbb``aa`b`b`acacaaaaaaaaaaaaa`bbbbbb`a`a`aaa```aaa`",
"bb`aacacacccca```a````b``````bbaaab`aaa``aacaa`a```aaa```acca`bbbacca`b`accc``b`b````````aaaaaaccaacacccca``b`bbbb``b`aca`b`acc`",
"bb`acccaaaa``bb`aaaa``a`bbaa`bbacaa```aaaccaa````b``bb`bb`a``b`b``aac`b`aaccab``````a``bb`a`aaaaa`aaaacca``bbaabbb`b`aa``bb`ccca",
"```acccab`bbbbb`acccaccc````bbb`ca`ab`aaacccaa`aaa`a``bbb```bbbbb``ac`bb`ccc``b``a`ccabbb````a``b``aacaca`bbba``bb``acaa```accac",
"a```acabbbbb`bb`aacacacaaa`bbbbb`bbb``caaacccccccaaaca`bb`cabbbbbba`abbbbac``b`acaaaca`b``a````b`b`acaaaabbbaa````a`aaa`````aaac",
"acaaac``b``aaa`aacacacccaab`bbb`bbb``cccaaacccccccaccca`b`ac`bbbbaaa`bbbb`````accca`ac`bbaaa`aa`b``aacaaa`bb`cccccacaa```````aac",
"acc`aa`b`acaaaaacccaaaccabbb`b`bbbbbaccaaaaacccaaaaccaaa``aa`b`b``a``b`bbbbb``aacaabb``b`aaaaaca`b``aaaaa``b`accccccc`````ca`ba`"
};
