#define pathfinder_width 14
#define pathfinder_height 14
static char pathfinder_bits[] = {
   0x00, 0x0e, 0x60, 0x11, 0x98, 0x1c, 0x04, 0x12, 0x04, 0x11, 0xf2, 0x10,
   0x0a, 0x10, 0x0a, 0x10, 0x0a, 0x10, 0x0a, 0x0c, 0x0a, 0x1f, 0xcc, 0x0f,
   0xf8, 0x03, 0xf0, 0x00};
