#define SaAdminObjectFinder_width 12
#define SaAdminObjectFinder_height 20
static unsigned char SaAdminObjectFinder_bits[] = {
   0x70, 0x00, 0x70, 0x00, 0x70, 0x00, 0x70, 0x00, 0x70, 0x00, 0x70, 0x00,
   0x70, 0x00, 0x70, 0x00, 0xff, 0x07, 0xff, 0x07, 0xfe, 0x03, 0xfe, 0x03,
   0xfc, 0x01, 0xfc, 0x01, 0xf8, 0x00, 0xf8, 0x00, 0x70, 0x00, 0x70, 0x00,
   0x20, 0x00, 0x20, 0x00};
