/* XPM */
static char *SaGuideDecal[] = {
/* width height ncolors chars_per_pixel */
"50 53 9 1",
/* colors */
"` c #1212EC",
"a c gray64",
"b c #ECECEC",
"c c #C87F7F",
"d c #EC12EC",
"e c #5A7FA3",
"f c #5A5A5A",
"g c gray7",
"h c black",
/* pixels */
"hhhhhhhhhhhhhhhhhhhhhhhhhhhhhhhhhhhhhhhhhhhhhhhhhh",
"heeeeeeeeeeeeeeeeeeeeeeeeeeeeeeeeeeeeeeeeeeeeeeeeh",
"heeeeeeeeeeeeeeeeeeeeeeeeeeeeeeeeeeeeeeeeeeeeeeeeh",
"heeeeeeeeeeeeeeeeeeeeeeeeeeeeeeeeeeeeeeeeggeeeeeeh",
"heeeeeeeeeeedeeeeeeeeeeeeeeeeeeeeeeeeeeggbgeeeeeeh",
"heeedeeeeeeedeeeeeeeeeeeeeeeeeeeeeeeeggabageeeeeeh",
"heeeedeeeeeedeeeeeeeeeeeeeeeeeeeeeeggbababgeeeeeeh",
"heeeedeeeeeedeeeeeeeedeeeeeeeeeeeggabababageeeeeeh",
"heeeeedeeeeedeeeeeeedeeeeeeeeeeggbababababgeeeeeeh",
"heeeeedeeeeedeeeeeedeeeeeeeeeggabababababageeeeeeh",
"heeeeeedeeeedeeeeedeeeeeeeeggbabababagababgeeeeeeh",
"heeeeeedeeeeeeeeedeeeeeeeggababababgggbabageeeeeeh",
"heeeeeeedeeeeeeedeeeeeeggbabababaggacgababgeeeeeeh",
"heedeeeeeeeeeeeeeeeeeggababababggcacagbabageeeeeeh",
"heeeddeeeeeeeeeeeeeggbabababaggacacacgababgeeeeeeh",
"heeeeeddeeeeeeeeegdddabababagcacacacagbabageeeeeeh",
"heeeeeeeeeeeeeegddababababggcacacacacgababgeeeeeeh",
"heeeeeeeeeeeeegababababaggacacacacaggababageeeeeeh",
"heeeeeeeeeeeeegbabababggcacacacacggbabababgeeeeeeh",
"heeeeeeddeeeeegdbabaggacacacacaggababababageeeeeeh",
"heeeeddeeeedeegbdbagcacacacacggbabababababgeeeeeeh",
"heeddeeeeeedeegabdbgacacacacgababababababageeeeeeh",
"heeeeeeeeeedeegbabdgcacacaggabababababggabgeeeeeeh",
"heeeeeeeeeedeegababdacacggbababababaggbabageeeeeeh",
"heeeeeeeeedeeegbabagdaggababababagggabababgeeeeeeh",
"heeeeeeeeedeeegababgggbababababggababababageeeeeeh",
"heeeeeeeeedeeegbabagababababaggbababaggbabgeeeeeeh",
"heeeeeeeeedeeegababababgbabababababggababageeeeeeh",
"heeeeeeeeedeeegbabababgbgbabababaggbabababgeeeeeeh",
"heeeeeeeeeeeeegabababgbabggabababababababageeeeeeh",
"heeeeeeeeeeeeegbababgba``bagabababababggabgeeeeeeh",
"heeeeeeeeeeeeegababgbab```bagabababaggbabageeeeeeh",
"heeeeeeeeeeeeegbabgbaba```agabababggabababgeeeeeeh",
"heeeeeeeeeeeeegabgbabab``abgbabaggbabababageeeeeeh",
"heeeeeeeeeeeeegbgbababa``bgbabagababababaggeeeeeeh",
"heeeeeeeeeeeeegabggabab`bgbababababababggeeeeeeeeh",
"heeeeeeeeeeeeegbabagababagabababababaggffffeeeeeeh",
"heeeeeeeeeeeeegababagabagabababababggffffffffeeeeh",
"heeeeeeeeeeeeegbababaggbgbabababaggfffffffffffeeeh",
"heeeeeeeeeeeeegababababgbabababggfffffffffffeeeeeh",
"heeeeeeeeeeeeegbababababababaggfffffffffffeeeeeeeh",
"heeeeeeeeeeeeegababababababggfffffffffffeeeeeeeeeh",
"heeeeeeeeeeeeegbababababaggfffffffffffeeeeeeeeeeeh",
"heeeeeeeeeeeeegababababggfffffffffffeeeeeeeeeeeeeh",
"heeeeeeeeeeeefgbababaggfffffffffffeeeeeeeeeeeeeeeh",
"heeeeeeeeeefffgababggfffffffffffeeeeeeeeeeeeeeeeeh",
"heeeeeeeefffffgbaggfffffffffffeeeeeeeeeeeeeeeeeeeh",
"heeeeeefffffffgggfffffffffffeeeeeeeeeeeeeeeeeeeeeh",
"heeeeeeeffffffgfffffffffffeeeeeeeeeeeeeeeeeeeeeeeh",
"heeeeeeeeeffffffffffffffeeeeeeeeeeeeeeeeeeeeeeeeeh",
"heeeeeeeeeeeffffffffffeeeeeeeeeeeeeeeeeeeeeeeeeeeh",
"heeeeeeeeeeeeeffffffeeeeeeeeeeeeeeeeeeeeeeeeeeeeeh",
"hhhhhhhhhhhhhhhhhhhhhhhhhhhhhhhhhhhhhhhhhhhhhhhhhh"
};
