#define SaNext_width 12
#define SaNext_height 11
static unsigned char SaNext_bits[] = {
   0x03, 0x00, 0x0f, 0x00, 0x3f, 0x00, 0xff, 0x00, 0xff, 0x03, 0xff, 0x0f,
   0xff, 0x03, 0xff, 0x00, 0x3f, 0x00, 0x0f, 0x00, 0x03, 0x00};
