#define SaNextInsensitive_width 12
#define SaNextInsensitive_height 11
static unsigned char SaNextInsensitive_bits[] = {
   0x02, 0x00, 0x0a, 0x00, 0x2a, 0x00, 0xaa, 0x00, 0xaa, 0x02, 0xaa, 0x0a,
   0xaa, 0x02, 0xaa, 0x00, 0x2a, 0x00, 0x0a, 0x00, 0x02, 0x00};
