#define SaPrev_width 12
#define SaPrev_height 11
static unsigned char SaPrev_bits[] = {
   0x00, 0x0c, 0x00, 0x0f, 0xc0, 0x0f, 0xf0, 0x0f, 0xfc, 0x0f, 0xff, 0x0f,
   0xfc, 0x0f, 0xf0, 0x0f, 0xc0, 0x0f, 0x00, 0x0f, 0x00, 0x0c};
