#define SaPrevInsensitive_width 12
#define SaPrevInsensitive_height 11
static unsigned char SaPrevInsensitive_bits[] = {
   0x00, 0x04, 0x00, 0x05, 0x40, 0x05, 0x50, 0x05, 0x54, 0x05, 0x55, 0x05,
   0x54, 0x05, 0x50, 0x05, 0x40, 0x05, 0x00, 0x05, 0x00, 0x04};
