/* XPM */
static char *scallopsmall [] = {
/* scallopsmall pixmap */
" 128 128 4 1",
/* colors */
"` s color0 c #9f9f9f",
"a s color1 c #5f5f5f",
"b s color2 c #dfdfdf",
"c s color3 c #202020",
/* pixels */
"aca``caa``bbb``ccc`aacacaa``bbb`aca``caa`bbb```cccacacacac`bbbbaac``acaabbb```accaacccccaab`bb`acc``aca`bbb``aaccaaaaccca`bbbb`c",
"``aaaa```b```acacaa`aaaacaa``bbb`ac`aaa`bb```aaccaaaaaaacaa``bbb`ac`c```bb``aaaccaaaaaacaaa`bbb`aaaac``bbb``aacca`aaaaacaaa`bb``",
"b`accc``b``aacaa````b````ccca`b``aacca``b``cacaa``b`b`b`aacca`b``aacaa``b`acacaa``b`b``aaacc``b``cacaabbbaaaaaa```b````aacca`bb`",
"`acaccab``aac``bbbbbbbbb``aaaa```acaca`b``aac``bbbbbbbbb``acc```aacaca`b``aca``bbbbbbbbb``caa```aaacc``b`acaa``bbbbbbbbb``caa```",
"ccccccca`aac``b`b``a````bb`aacacccccacaa`cac`bb``a````b`bb`cacacccacacaa`caa`bb``a````bbb``cacccccacccaaaccabbb``a````bbb`acacac",
"caaaacccccca`b```accaaaa`b``cccccaaacccccaca`b``acaaaaa``b`aacccaaaacacccca``b``acaacaa``b`aacccaaaacacccca``b``cccaaaa`bbaccccc",
"`````aacccccaa`cccaaacccaaacacaa`````aaccccc`aacaa`aaccc`aacacaa`````aaccccc`aacaa`aaccc`aacacaa````aaacccca`aacaaaaccca`aacaa`a",
"bbbbbb``aacccaaca``b``aaaaaac``bbbbbbb``aaaaacccab`b``acaacaa``bbbbbbb``aaccaaca`b`b``caaacca``bbbbbbb``aacccac``b`b``caaaaaa``b",
"bbbbbbbbb``aaccc``bbbb`aacaa``bbbbbbbbb`b``aaccc`bbbb``cacaa``bbbbbbbbb`b``aacca`bbbb``cacaa``bbbbbbbbb````aacc`bbbbb`acaca`bbbb",
"bb``````bbbb``ccabbbbb`aca`bbbbb```````bbbbb`acc`bbbb`acca`bbbbb```````bbbbb`aca`bbbb`aca``bbbbb```````bbbb`acc`bbbb``cca``bbbbb",
"`acaaaaa``bbb``aaa``b``caabbb``aaaaaaaaa``bbb``ca`b`baac``bbb``aaaacaaaa`bbbb`ac``bb`aaa``bbb``aacacacaa`bbbb`ac``b``aca`bb````a",
"cac`aaaaca`bbbbbaaa``aaa`bbb``accaaaaaaaa``bbb``aa```ac``bbb`acacaaacaaaa``bbb`aca``aac``bb``acccaaacaaaa`bbbb`ac```aaa``b``aacc",
"```````cccca``bb`caaccaabbba`ccc`````a`cacaa``b``cacaca`bb`aacaa`````aaacc``bbb`acacaca`b``aacaa`````aaccc``bbb`ccacac``b``accaa",
"`bbbbb``aacca``b``cacac`bb`aa````bbbbb``aacca`bb`aaacca`b`acaa```bbbbb``aacc`bbb`aacccabb`aaa````bbbbb``aaca`bb`aaacaa`b``caa``b",
"b`````bbb``aac``baaccccc`acca`b`b```bbbbb``caa``baccccaa`acc``b`b```bbb`b`acaa```ccccca``acc``b`b```bbb`b`acaa```accaca``cca``b`",
"``aac``bbbb`accaaaaaccccccccab``aacaa``bbb``caaaaccccccccacc`b``aacaa``bbb``ccaacacccccaaaca`b``aaca``bbbb`acccacacacccaccc``b``",
"acacccaa````ccccccccacccacccca`accccccaa```aacccccccacccacccaaaaccccaca````accccccccacccacccaaacacccac`````cccccacccccccaccc`aac",
"aaa`aaacaaaacccca`a`````aaccccacaaaacacca`accccca`a`````aacccccca`aacacca`accccca`a`````aacccacaa`aacacaaaaacccaa```````accccaca",
"a````aacacccccaa``b`bbb`b``aacaca````aacaccccc`a``b`bbb`b``aacac`````aacacacca``b`b`bbb```aaacac``b``aacaccccaa`b`b`bbb``aacaccc",
"c``bbb`acaaaa``bbbbb`bbbbbbb``aac``b``accaaaa``bbbbbbbbbbbbb`aaaa`bb``accaa````bbbbbbbbbbb`b`acaabbb``cccaa``b`bbbbbbbbbbb```acc",
"ac``b`aca```b`bbb`````bbbbbbb`accc```aaca```bbb`b`````bbbbbbb`acaa```caa``b`b`b`b```b`bbbbbb`aacaab``cca````b`b`b```b`bbbbbb`ccc",
"aaca``a``bbb````a`acc`a``bbbbb``aaa`aaa``bbb``aaaacaa`a``bbbbb`aaaa`aaa``bbb``a`aacaa`a``bbbbb`aaaa`aa`bbbbb``aaaacaa`a``bbbb`aa",
"`cccaa``bb``acccccacacacaa``bbb`acacaa``b``aacacccacaaccaa``bbb`acaaa`b`b``aacacacaccaccaa``bbbaacaaa`bbb``aacccacacaccaa```bb`c",
"``cac``b``aaccaaa`a```aacaaa`bbb`acca`bb``aacaaaa`````aaaaa``bbb`accabbb``cacaaaa`````aaaaa``bbb`aca`bbb`acccaaaa```aaaacaa`bbb`",
"b`aca````cccaa``b`b`b````aacaa````cc````accca```b`bbb````aac``b``acc```aaccca```b`bbb````aac``b``cca```aaccc````b`bbb````caa``b`",
"aaccca`aaccc`bbbbb`bbbbbbb`cca``aaccc`acccca`bbbbb`bbbbbb`acca``accca`acccc``bbb`b`bbbbb``ccc```cccca`acccc``bbb`b`bbbbb``ccc```",
"ccccccaccccabbb``aaa``b`bb`cacacccccccccccc`bbb`aaaa``b`bb`cacccaccccccccca`bb`aaaaa``bbb`acacccccacaccccc``b``aaa`a``bbb`acaccc",
"aaaaaaccccc````acacccaa````acccca`aaaaccccc```aacccacaa```accccaaaaacacccca```aaaccacaa```cccccaaaaaaccccc````acacccca````acccca",
"```````aacccacccccacacccccaccca````````aacccacacccaaaccccccccca```````acccacacccacaaacccaccccc```````aacccccacccacacacccacccac``",
"bbbbbbbb`acacccca`````cccacca``bbbbbbb```acccccca`````cccacaa``bbbbbbb``aacccccca````accaaca```bbbbbbb``acccccca`````cccaaca`bbb",
"b`b`bbbbb``aaccc``bbb``cacaa`bbbbbb`bbbbb``ccccc`bbbb`acccaabbbbb`bbbbbbb``cccaa`bbbb`acaca`bbbbb`bbbbbbb`acccc`bbbbbaccaa``bbbb",
"``aa```bbbbb``cca`bbb`aac``bbb````a````bbb`b`accabbbb`caa``bbb``a`a````bbb``aaca`bbb``caa``bbb``a`a````bbb``acca`bbb`aca```bbb``",
"acacccaa``b`b``caa`b`aaca`b```acccccccaa``bbb`aca`b``cac``b``aacccccccaa``b```cca`b``cca``b``aacacccccaa``b``acc``b`acca``b``cac",
"cccccccccaa`bb``caa``aca`b``acccccccccccca`bbb`aca``acc``b``aaccccccccccc``bbb`aa```aac`bb`acacccccccccca``bbb`aa```caa`bbaacccc",
"aa`aaaacacca`bb`accaacaabb`cccccaa`aaaacaccabbb`acaacc``b``cccaaaa`aacacaca`bbbaac`cca``b`acccaa```aacacaca`bb`aac`caa``b`ccccaa",
"bbbb`b````cca`bb`aacca`bb`acca```bbb`b```aca`b`bacacca`b``ccc``b`bbb`b```aca`b``aacca``b``caa``bbbbb`b``acc``b``cacaa``b`acaa``b",
"b`````bbb``caa`aacacccaa`aaca`bbb```b`bbb``aac`aacacccaa`ccc``bbb```bbbbb`aaaa`cccacccaa`ccc``b`b```bbb``aaaaa`cccacac`a`cca``b`",
"``aaa``bbb`acaccaaaacccccacaa`b```aaa``bbb`accccaaaccaccaacc`bb`a`aaa``bbbacccccaacccaccaaca`b``aaaaa``bb`accacaa`cccaccacca`b``",
"acccacaa```accccaa`a`aaaacccaa`accacccaa``acacacaa`aaaacacccaa`accacccaa`aacaccaaa`aaaacaccca``aacacacaa`aacccca`a`a`aaaacccaaac",
"cca`aacacacccca``bbbbb``aacccccacaaaaaccaacccaa``bbb`b``aacccacaaaaaaaacaacccaa``bbb`b``aacccaaac`a`acccacccca```bbb````acccccaa",
"c`bbb``acccc``b`bbbbbbbbb```accca`b`b``cccac``bbbbbbbbbbb``aaccc``b``aacccaa``bbb`bbbbbbb``aaccc``b``cacccaa``bbbbbbbbbbb``aacca",
"cabbb`acaa``bbbb`````b`bbbbb``aac`bb``ccca``bbbb`````b`bbbbb``aca`bb``ccc``bbbbb`````b`bbbbb``ccabbb`acaa``bbbbb`````b`bbbbb`aac",
"cc``baaca`bbb`b``a`a`aaa``bbbb`acc```aac``bbb``a`aaaaaaa``bbb``aca`b`aaa``bbb``aaaaaaaaa``bbb``cc`b``aaa``bbb``aaaaaaa```bbbb``c",
"`aa``a```bbb``aacaaaaaccaa``bbbbaaa`aaa``bbb``aacaaacacaaa`bbbb`aa``a`a`bbbb``accaaccacaa``bbb``ca``a```bbb`aaaccaaaaacaa``bbb``",
"`aacac``bbb``cacaaaaacaaacca``b``caacc``bbb``cacacaaacacacaa`bb``caaca``bb``acacaaaaacacacaabbb``cacc``bb``accaaaa`aacacac``bbb`",
"``cccaabbbaaaaa``b`bbb`b``cca``b``caca`bb`aaaa```b`b`b````cca``b`accca`bb`aaca```bbb`bb`a`caa``baacca`bb``aaa````b`b`b``acca`b``",
"`ccccca``aaca```b```b`bbb``cac`aacacac```aaca`b`b```bbbbb``cac`aacacac```cac``b`b```b`bbb`acaa`aacacaa```aaa``b`b`b`b`b`b`acaa`a",
"ccccccaacaca`bbb``a`a```bb``caccaccacccaccca`bbb``a`a```bb`accccaccccccaacc``bb```a````bbb`aaccccccccacaacc`bb``aaa````bbbacccca",
"acaaacacccca```aaccaaccc```aacccacaaacacccaa```aacacacca```aacccacaaccccacaa```accacacaa```cacccacaccccccca````aacacccaa``accccc",
"```b``aaccccaaacca``aacccaaccaa``bb```aacccca`cca```aacaa`aaaaa``bb```aacccca`cca```aacaaacaaaa``b````accccaaacca`aacccaaaccca``",
"bbbbbbb``aacccac``bbb``caaaaa`bbbbbbbbb``aaaaccc``b`b``caacc``bbbbbbbbb``aacacac`bb`b`acaaaa``bbbbbbbbb``aacacaabbb`b`ccacaa``bb",
"bbbbbbbbbb``aaca`bbbbb``cca``bbbbbbbbbbbbb``acca`bbbbb`acaa``bbbbbbbbbbbbb``acca`bbbbbaccaa`bbbbbbbbbbbbbb``ccc`bbbbb`acca`bbbbb",
"```a`a```bbbb`aca`bbb``cac``bbb````a````bbbb`acc``bbb`acaa`bbbb``a`a````bbb``ccc``bbb`aca`bbbbb``a`a`a``bbb``caa`bbb`aaaa`bbb```",
"accacccca`bbbb`aca`bb`aca`bbb``acccacaaaabbbbb`aa``b``aaa`bb```accaccaa``bbbb`aca``b``ca`bbb``aaccacccca`bbbb`aca`bb`ac``bbb``aa",
"ccaaaaaccc``bbb`ac`a`caa``b``aacccaaaaacaa``bbb`ac`aacaa`bb``accccacacacaa``bbbaca`aaca`bbb`acccacacaaacaa``bb`cca`aaca`bb``accc",
"``bb`b`aaacaabbb`acacac`bb`aaaa````b````aac``bbb`acaccc`bb`aaaa``bbb``aacca``bbb`aacccabbb`aaaa``b`b``aacca``bb`ccacca`bb`a`ca``",
"b`bbb`b``a`ca```baacacaab``caa``b`b`b`b``aaca`b`bcacaca```ac````b`b`b`b``aac``b``caccc```acc````b`b`b````acc``b`acacac```cca````",
"```````bbb``cca``aaccacaaaccabbb``a``bbbbb``ca```aacaccaaaca`bbb``a``bbbb``aca``aaccccc`aaca`b`b`````bbbb`acca``aacccac`acc``b``",
"`cccca``bbb`ccccccacacccaccca```acccaa``bbb`acaccaacacccaccc```aaccca```b``accaccaacccccaccc```aaccca`b`b``cccccacccccccacca```a",
"accccaaa````cccccacaaacacacccaaacccccaa`````aacccacaaacacccacaaacccccaa``b`acccccacaaacccccaaaaacacccaa````cccccaacaaacaccccaaaa",
"ac```cacacaaacccaa```````aacccacaa`aacacccacacaa`````````aacccacaa`aacacacacccaa```````a`cccccaca``aacacacacccaa`````````cccccaa",
"c``b``aaacccca```bbbbbbbbb``aaaaa``b``acccccca```bbbbbbb`b``aaaca`bb``accccca````b`bbbbb````aaaa`bbb``cacccaa``bbbbbbbbb```aaaca",
"aa``b``caaac``b`bbb`b`bbbbbbb``cca``b``caaaa``b`b`b`bbbbbbb`b`aca`bbb`acaaaa``b`b`b`bbbbbbb``aaca`b``accaaa`b`bbb`b`bbbbbbb``aac",
"cca```ca```b`b`b`````````bbbbb`aca`b``ca`bbb`b````a````bbbbbb`acca`b`aa``bbbbb````a````bbbbbb`aac```aaa``bbbbb````a````bbbbb``aa",
"acac`ca`bbb``a`accccaaaa````bbb`acaaac``bbb``aacccacaaaa``bbbb`aacaaac``bbb``aaaacacaaaa``bbb``aacaaaa``b`b``aacacacacaa``bbb``c",
"`acca``bbb``accccacaaaacaaa``bbbaacac``bbb``ccaccacaaaccaa``bbb`accaa``bb``acccccacacacaaa`bbbb`accaa`bbb`aacacccaaacacaa``bbb`a",
"b`cca`b```acccaa```````aacaa``b```cca`b``acccaaa``````aaacaa``b``acc``b``acccaaa`````aaaacca`bb``cca`bb``cccaa`a`````aaaacaa`bb`",
"``cca```accca``bbbbbbbbb``aaaa`b``cca```accca``bbbbbbb`b``aca``b``ca````ccca```bbbbbbb`b``cca``b`aca```accca`b`bbbbbbb````caa```",
"acccacacccca``b```````bbb``cccaaacccacacccca``b```````bbb``ccc`aacccaaacccc``bb`````b`bbb`accc`cccacacaccca`bbb`````bbbbb`acca`a",
"ccccccccccc`bb``aaaaa``bbb`aaaccccccccccccc`bb``aaaaa``bbb`ccacccccccccccca`bb``aaaa```bbbaccacccccccccccc`bbb`acaaa```bb`aaaccc",
"aaaaaaacccca``acacaccccaaa`cacccaaaa`accccaa``acccacacaa``accccaaaaaaaaccca``aacccccacaa`accccca`aaaaccccca``accacccccaa`aacccaa",
"`bbb`b``accccacccaa`aacccaccca```bbbbb``cccccaccca``aacccaccca`b`bbb```acccacccaaaaaaacccccca``bbbbb``aacccaccccaaaaccccaccca``b",
"bbbbbbb``aacaccca`b```acccac``bbbbbbbbb``aacccac``b```acacca``bbbbbbbbb``acccccc``b``accacca``bbbbbbbbb``cacccca``b``cacacaa`bbb",
"`b```b`bbb``acccabbbbbaccaa``bbb```b`b`bbb``aacc`bbbb`acaaa`bbbb```b`bbbbb``caca`bbbb`ccaaa`bbbb```b`bbb```accc`bbbb``cca``bbb`b",
"`aaaaaa`b`b``acca`bbb`ccc```b``aaaaaaa``b`b``acca`bbbacca`b`b``aacaaaa``bbb``acc``bb`acc``b`b``aaaaaaa``b`b``ccc``b``ccc``b`b``a",
"caaccccaa``bbb`ac``b`accabbb``acccccccaaa``bbbacc``b`aca`bb``aaacacccccaa``bb`aca`bbacc``b``aacccacccaca``bb``cca`b`aac`bb``aacc",
"acacccacccaabbb`aca`acaa`b`accccccaccccccc``bbbaac`aacaabb`accacccaccccccc``bb`aac`aaca`b``cccacccaccccccc``b``aac`aac``b`acccac",
"````````aaca`bbbaccaaaa`bb`ccca```````aaaaca`bb`accaca``bbaccaa```````aaaac``bb`cccaca`bb`accaa```````aaaca`bb``ccaaa``b``cccaa`",
"bbb`b`b```aca`b``cacca````acaa``bbb`b`b``acca`b`acacac````cca```bbb`b`b``acc````aaaccc```acca`b`b`b`b`b``aca```aaaacaa```ccc``b`",
"bb`````bbb`aaaa`aaaacacaa`cca`bb`b```bbbb``aaaaaaaacccc`aaca`bbb`````bbbb`aaaaaacaacccc`acca`bbb`````bbbb`aaaaaacacccca`acca`bbb",
"`cccac``b``accacac`accccacaca````aacac``b``accccacacacccaccc````acacac``b``cacccaaacacccacac```aacacaa``b`acccccaaacccccacaa```a",
"cccaaacaa`aacccaa`````a`accccaaaccccccaaa`acaccaa`````a`accccaaaccccccaaaaccccc`a`````aacccca`accacacaa``accccc```````aacccccacc",
"aa```accccccaa``b`b`b`b```acccccaa`a`aacaccc`a``bbbbbbb```acaccca``a`cacaccc````bbbbb`b``aacccac```a`ccccccca```b`bbb````accccca",
"c``bb`aaccc``bbbbbbbbbbbbb```acaa`bb``accca``bbbbbbbbbbbbb``aacc`bbb``accaa``bbbbbbbbbbbbb``acca`bbb`acccaa``bbb`bbbbbbbbb``acaa",
"cc`bb`acac``bbbb```a````bbbbb``ccabbbaacaa``bbb``a`a````bbbbb`aca`bb`aacaabbbbb``a``````bbb``aaca`b``caaa`bbbbb``a``````bbb``aac",
"cca```aaa`bbbb``aa`aaacaa``bbbb`ca`b`aaa`bbbb``aaaaaaaaaa`bbbb``ca`ba`a``bbb``aaaacacaa```bbbb`ac```aaa``bbb``aaa`a`aaaa`bbbbb`c",
"`aaa`c``bbb``aaacc`aacacaaa`bbb``ca`ac``bbb``aacccacacccac``bbb`acaaaa``bbb``aacacacacccaa``bbb`aa`aaa``bbb`acacaaacacccaa``bbba",
"``aaca`bbb``accaa```````aacaabbb`aa`ca`bbb``acca````````aaca`bbb`aaac``bb```ccaa````````aac``bbbaaaca``bb```caa````````aaaa``bb`",
"`aaccc``b`acac``b`bbb`bb`aacaa```caacc``b`acaa``b`b`b`b``accaa```cacca``baacaa``b`b`b`b``acca```acaccab``aacaa``b`b`b`b``cca````",
"accccaca``ccabbb`````b`bbb`acccaccccaaa``acc`bbbb````bbbbb`acaaacccccca`acca`bbb`````bbbbbaacaaacccccaa`aac``bbb`````bbbb`cccaaa",
"acccccaccccc``b``aaaaaaa``baccccacccacacccaa``b``aaaaa``bb`accccacccccccacaab`b`aaaaaa``b``cccccacccccccaca`b``aacaaaa``b`accccc",
"a```aaacccca````caa`cccca``acccaa```aaacccca```acaaaacca``aacccaa```aaccccc```aacaaaccc```aacccaa```aaccccc```aaaaaaccc```accaaa",
"``b`b``aacccacacaa```aacacacac````b````aacccacacaa```accaaacac``b`b````accccacac`````cccacacaa``bbb````cacccaccc```aacacacacaa``",
"bbbbbbbb```aaaca`bbbbb`aaacaa`bbbbbbbbbb``a`accc`bbbbb`aaaca`bbbbbbbbbbb``aaacca`bbbbbaaaaca`bbbbbbbbbbb``aaaca`bbbbb`aaaca``bbb",
"b```b`b`bbb``acc``bbbb`acc``bbbbb```b`b`bbb``ccc`bbbb``cac``bbbbb```b`bbbbb``cca`bbbb``caa``bbbbb`b`b`bbbbb`accabbbbb`acca``bbb`",
"``a`a````bbbb`aac``bb`aaa``bbb``a`a`a````bbbb`aaa`bbb`aaa`bbbb``aaa`a`a``bbb``ca`bbb``caa`bbbb``aaa`a`a`bbbb``ca`bbb``caabbbbb``",
"accaccaca``bbb`acc```aac``bbb``ccccaacaaa`b`b``acc```aaa``b````cccacacaa``bbb``cca```caa``b``aacacacacaa``bbb``ca````caa`bb``aac",
"aaa`a`accca``bbbaca`aaca`bb``acca`a`aaaccaa``bb`aaaaacc`bb``aacaa````aacca``bbb`aaaacca`bb``accaa`````ccca`bbb``caaaaaabbb``aaca",
"``bbbb`aaccc``bb`aaaacaab``aaaa```b`b``aacca``b``aacaca`b``caa````b`b``aacaa``b``aacaca`b``caa``bbb`b``aacaa``b`acacac`bb`aaaa``",
"bb`bbbbb```ac``b``accaaa``aca``bbb`bbbbb``aaa``b`acccca```aa```b`b`bbbbb``aca``b`acaacab``ca`b`b`b`bbbbb``aaa``baacaaa`b`aca`bbb",
"`aaaa`bbbbb`acca`cacacccaccc``b``caa``bbb``accaaacccacccacac``b``caa``bbb``acc`aacccaccaacaa``b``caa``bbb``cacaaccacaccaacaab```",
"accccca``bb`accccaccaaccaaccc```cccccaa``b``cccccacccccccacca```ccccc```bb``cccccacccccaccca```accccc``bbb`ccccccccacccaccca``ac",
"acacccaa```aaccccaaaaaaaacccccacacacacaa```aacccaaaa`aaaacccccaaacacaaaa```cacccaaaa`aaaacccccaaaaacaaaa``acccccaaaa`aacacccacac",
"c````acaaaaacccaa``b`b`b``aacacaa```aaccaaaacaa````b`b````aacaaaa```aaaccaaacaa``b`b`b````aaccaaa```aaaaaaaacaa``b`b`b````aaacc`",
"aabbb``cccccaa``bbb`bbbbb`b``aaaa`b`b`acccacaa``bbbbbbbbb````caca`b```acccaca```bbbbbbbbb```acac``b``accccca``bbb`bbbbbbb```acac",
"ca`bbbaca`a``bbbbb```b`bbbbbb`aac``b``acaaa``bbbbb```bbbbbbb``aac``b``caa`a``bbbbb```bbbbbbb``cca``b`acaa`a``bbb`````bbbbbbb``cc",
"acaa`aaa``b`b``a`aacaa`a`bbbbb`caaa``aaa``b`b``a`aacaa``bbbbb``aaaa``ca`b`b`b``aaaac`a``bbbbb``caa```c``b`b`b``a`aac`a``bbbbb`ac",
"acccaaabbbb`aaaccacaaacca``bbbb`accaca`bbb``aaaacaaacacaa``bbbb`cccac``bbb``aacccaaacacaa``bbb``cacaa`bbbb``aacccacaccca```bbb`a",
"`cccca`bb``aacacccaa`cacacaa`bbb`ccccabbb``cccacacaaacccaca`bbb``ccca`bbb`aaccacacaaacccaca`bbb`accc``b``aaaccacac`aacccaa``bbba",
"b`cca`````cccaa``b`b````aacca`bb``ccabb``accc`a````b``a`aaca`bbb``cc`b```accc``````b``a`acca`bbb`cca`b``accca````b`b``aaaac``bbb",
"``ccaa`aaccca`b`bbb`bbb`b``caa```acca``aaccc``b`b`b`bbb`b`acaa```ccc```aacca``b`b`bbbbb``acca````cac```cccca``bbb`bbbbb``acca```",
"caccccccccc``bbb``a````bbb`acaaaccccccccccc``bb``````bbbbb`acacacccccccccca`bbb`a````bbbbbaccacccccacaccccabbb``a````bbbb`acaaaa",
"ccacacccccc`b``aacaacc``b``cacccccaccccccca`b``aacacac``b``cccccaccccccccc``b``aacacaa``b`acacccaccccccccc``b``cccacaa``b`acacac",
"``````aaccca``accccacccaaaacccca``a```acccca``accccacacaaacccccaa`a``acccccaaacccaccaacaaacccaa`````aaaccca`aacccaccccaaaacccaa`",
"bbb`b`b``aacacccca`a`accccccaa``bbbbbbb`acacacacaa`a`acccccca```bbb`b``aacacacccaa`aaaccaccca``bbbb`b``aacacaccc```aaccccccc``bb",
"bbbbbbbbb``acccc`bbbbb`aaaaa`bbbbbbbbbbbb`aaccca`bbbb`acaac``bbbbbbbbbbb``cacca``bbbb`cccaa``bbbbbbbbbbb``aaccc``bbb``cacaa`bbbb",
"```a````bbb``ccca`bbb`acaa``bbb``a`a````b````ccc``bbb`acaa``bbb``a````bbb```accc`bbbbaacaa``bbb``a````bbb``aacca`bbb`cac`a`bb```",
"aaccaaa``bbb``aca``b``cca``b```acccccaa``bbb``cca`bb`acca``b```acacccaa``bbb`accabbb`aca`bbb``aacacacaa``bbb`aca`bbb`cca`bbb``ac",
"acccccacaa``bb`aaa```aac`bb``aacccccccaca```b``cca```cca`bb`acccccccccaca`b`b``caab`acaabbbaacccacccccaa``bbb`aca`b`aca`bb`aaccc",
"aaaaaacaccc``bb`aaa`aaa``b`acccaaaaacacccaa``bb`caa`cca`bb`acacaaaaacacccaa`bb``ca`acaabbbaacaaaaaaacacccaabbb`aaa`ac``bb`acccca",
"``b`b````aaca`b``cacac``b``ccc````b`b```acac``b``caccc``b`accc````b````aacca``b`acacaa`bbacccc````b````aacca``bacccc```b`cccca``",
"bbbbbbbbbbacc```aaaacaa```ccc``bbb`bbbbb``aaa```accccca``acca``bbb`bbbbb``caa```cacccca``acc`bbbbb`bbbbb`aca```acaacaa``accc`bbb",
"b``a````bb`aacaaacacacccaacca`b````a``b`b``aacccacaccccaaccc``b````a``bbb`aaacacaaaccccaaccc``b``a`a``bbb`acaaaaaaccccacacca`bb`",
"`acacaa``b`accccca``aacaaacac```aaaccaa````accccaaaaaacaaacaa```aaaacaa```aacacaaaaacccaaaca````aaccc`````accacaa`aacccacaca``aa",
"ccaaaccaaaacccaa`````````cccccaaacacacacaaacacaa```````aacccccacccaaacac`cacacaa```````aacccccacacacacaa`ccccca```b``a`aacccccac",
"c``b``aacccaa``bbbbbbbbbbb``aacca``b``acccca```bbbbbbbbb`b`acccc```b`aacccca```bbbbbbbbb```accca`b```aacccc````bbbbbbbbb``aaacca",
"aabbb`accca`b`bbb`b`b`bbbbb``aaca`bbbacccc``bbbbb```b`bbbbb``aaca`bbbaccca``bbbbb```b`bbbbb``cac`bb``cccca``bbb`````bbbbbbb``cac",
"ca`bb`aaa``bbbbb```a`````bbbbbaccabb``cac``bbbbb````a```bbbbb`acc`bb`acaa`bbbbbb``a`a``bbbbb``ccabbb`aaaa`bbbbb`a`a````bbbbb``cc"
};
