#define shelf_width 14
#define shelf_height 14
static char shelf_bits[] = {
   0x04, 0x01, 0x04, 0x01, 0x24, 0x09, 0x20, 0x08, 0x20, 0x08, 0x00, 0x00,
   0xfe, 0x1f, 0xfe, 0x1f, 0x00, 0x00, 0x04, 0x00, 0x04, 0x00, 0x24, 0x00,
   0x20, 0x00, 0x20, 0x00};
