/* XPM */
static char *toolBarNewPixmap_xpm[]={
"20 20 6 1",
"  c #AEAEB2B2C3C3",
". c #000000000000",
"o c #424242424242",
"O c #FFFFFFFFFFFF",
"a c #ADADADADADAD",
"b c #99996666CCCC",
"                    ",
"     .              ",
"     .ooooooooo     ",
"     .OOOOOOOoOo    ",
"    .O.OOOOOOoO o   ",
"   ..O..OOOOOoO  o  ",
"...OOOOO...OOoooooo ",
"   ..O..OOOOOOaaaao ",
"    .O.OOO.....OOOo ",
"     .OOOO.bbb.OOOo ",
"     .OOOO.....OOOo ",
"     .OOOOOO.OOOOOo ",
"     oOOO.......OOo ",
"     oOOO.OOOOO.OOo ",
"     oOO...OOO...Oo ",
"     oOO.b.OOO.b.Oo ",
"     oOO...OOO...Oo ",
"     oOOOOOOOOOOOOo ",
"     oooooooooooooo ",
"                    "
};
