/* XPM */
static char *toolBarOpenPixmap_xpm[]={
"20 20 8 1",
"  c #AEAEB2B2C3C3",
". c #424242424242",
"o c #FFFFFFFFFFFF",
"O c #ADADADADADAD",
"a c #000000000000",
"b c #99996666CCCC",
"c c #FFFFFFFF0000",
"d c #FFFFCCCC3333",
"     ..........     ",
"     .ooooooo.o.    ",
"     .ooooooo.o .   ",
"     .ooooooo.o  .  ",
"     .ooooooo...... ",
"     .oooooooooOOO. ",
"     .ooooaaaaaooo. ",
"     .ooooabbbaooo. ",
" aaaa.ooooaaaaaooo. ",
"aococ.      a     . ",
"acoco.   aaaaaaa  . ",
"aococ.   a     a  . ",
"acoco.OOaaaOOOaaaO. ",
"aococaaaaaaaaaaaaaaa",
"acocoadddddddddddda ",
"aocoadddddddddddda  ",
"acoadddddddddddda   ",
"aoadddddddddddda    ",
"aadddddddddddda     ",
"aaaaaaaaaaaaaa      "
};
