/* XPM */
static char *_xpm[]={
"20 20 8 1",
"  c #737373737373",
". c #000000000000",
"o c #CCCC9999FFFF",
"O c #99996666CCCC",
"a c #AEAEB2B2C3C3",
"b c #FFFF00000000",
"c c #FFFFFFFFFFFF",
"d c #ADADADADADAD",
"        . . .       ",
"         o o        ",
"        . O .       ",
"         o O       a",
"        . . .       ",
"                   a",
"  . . . . . .     a ",
"         .       a a",
". . .   .       a a ",
" o o   . b o a a a a",
". O .   b . o a a a ",
" o O   . b . a a a a",
". . . a . b . a a a ",
"     a o . . . a a a",
"  . a a   . c . a a ",
" . . a a   . d . a a",
". o . a a a . . . a ",
" o O a a a   . . . a",
". O . a a a   . . . ",
" . . a a a a   . . a"
};
