/* XPM */
static char *toolBarRefreshPimap_xpm[]={
"20 20 8 1",
"  c #737373737373",
". c #000000000000",
"o c #CCCC9999FFFF",
"O c #99996666CCCC",
"a c #AEAEB2B2C3C3",
"b c #FFFF00000000",
"c c #FFFFFFFFFFFF",
"d c #ADADADADADAD",
"        .....       ",
"        .ooo.       ",
"        .oOO.       ",
"        .oOO.      a",
"        .....      a",
"          .       aa",
"  ............    aa",
"  .      .       aaa",
".....   ..     aaaaa",
".ooo.  ..b.ooaaaaaaa",
".oOO.  .bb..oaaaaaaa",
".oOO.  .bbb.oaaaaaaa",
"..... a..bb..aaaaaaa",
"  .  aao....c.aaaaaa",
"  . aaaa  .ccc.aaaaa",
".....aaaa  .dd..aaaa",
".ooo.aaaaaa ... .aaa",
".oOO.aaaaaa  ... .aa",
".oOO.aaaaaaa  ... .a",
".....aaaaaaaa  ....a"
};
