/* XPM */
static char *toolBarSavePixmap_xpm[]={
"20 20 7 1",
"  c #AEAEB2B2C3C3",
". c #000000000000",
"o c #BDBDBDBDBDBD",
"O c #33339999FFFF",
"a c #FFFFFFFFFFFF",
"b c #33336666FFFF",
"c c #333333333333",
" .............o...  ",
".OO.o a  a   a.OOO. ",
".Ob.oa  a ..  .bbbb.",
".Ob.o  a  .b  .bbbb.",
".Ob.o a   .b  .bbbb.",
".Ob.oa    .b  .bbbb.",
".Ob.o    a    .bbbb.",
".Obb...........bbbb.",
".Obbbbbbbbbbbbbbbbb.",
".Obbbbbbbbbbbbbbbbb.",
".Obb............bbb.",
".Ob.oooooooooooo.Ob.",
".Ob.oaaaaaaaaaao.Ob.",
".Ob.oaooooooooao.Ob.",
".Ob.oaaaaaaaaaao.Ob.",
".Ob.oaooooooooao.Ob.",
".Ob.oaaaaaaaaaao.cb.",
".Ob.oaooooooooao.Ob.",
".Ob.oaaaaaaaaaao.Ob.",
" .................. "
};
